solid JSCAD
facet normal 0.8314589494566605 0.555586190764697 0
outer loop
vertex 8.154906260797759 5.448909420521838 5.000072502866833
vertex 9.238803556649483 3.826809876097642 9.999962254545695
vertex 9.238803556649483 3.826809876097642 5.000072502866833
endloop
endfacet
facet normal 0.8314589494566605 0.5555861907646971 0
outer loop
vertex 8.154906260797759 5.448909420521838 5.000072502866833
vertex 9.238803556649483 3.826809876097642 5.000072502866833
vertex 9.238803556649483 3.826809876097642 0
endloop
endfacet
facet normal 0.8314589494566604 0.5555861907646973 -1.0243296581658047e-16
outer loop
vertex 8.154906260797759 5.448909420521838 5.000072502866833
vertex 9.238803556649483 3.826809876097642 0
vertex 7.071008964946034 7.071008964946034 0
endloop
endfacet
facet normal 0.8314589494566602 0.5555861907646973 0
outer loop
vertex 8.154906260797759 5.448909420521838 5.000072502866833
vertex 7.071008964946034 7.071008964946034 0
vertex 7.071008964946034 7.071008964946034 5.000072502866833
endloop
endfacet
facet normal 0.8314589494566602 0.5555861907646974 0
outer loop
vertex 8.154906260797759 5.448909420521838 5.000072502866833
vertex 7.071008964946034 7.071008964946034 5.000072502866833
vertex 7.071008964946034 7.071008964946034 9.999962254545695
endloop
endfacet
facet normal 0.8314589494566603 0.5555861907646973 1.0243670984837319e-16
outer loop
vertex 8.154906260797759 5.448909420521838 5.000072502866833
vertex 7.071008964946034 7.071008964946034 9.999962254545695
vertex 9.238803556649483 3.826809876097642 9.999962254545695
endloop
endfacet
facet normal 0.5555861907646971 0.8314589494566604 0
outer loop
vertex 7.071008964946034 7.071008964946034 9.999962254545695
vertex 7.071008964946034 7.071008964946034 5.000072502866833
vertex 3.826809876097642 9.238803556649483 5.000072502866833
endloop
endfacet
facet normal 0.5555861907646971 0.8314589494566604 0
outer loop
vertex 7.071008964946034 7.071008964946034 9.999962254545695
vertex 3.826809876097642 9.238803556649483 5.000072502866833
vertex 3.826809876097642 9.238803556649483 9.999962254545695
endloop
endfacet
facet normal 0.5556037095187225 0.8314472430461448 0
outer loop
vertex 7.071008964946034 7.071008964946034 5.000072502866833
vertex 7.071008964946034 7.071008964946034 0
vertex 4.898462842355357 8.52278440218193 0
endloop
endfacet
facet normal 0.5556037095187225 0.8314472430461448 0
outer loop
vertex 7.071008964946034 7.071008964946034 5.000072502866833
vertex 4.898462842355357 8.52278440218193 0
vertex 4.898462842355357 8.52278440218193 5.000072502866833
endloop
endfacet
facet normal -0.1950351296613703 0.9807962572308135 0
outer loop
vertex -1.913404938048821 9.619474281191575 5.000072502866833
vertex 0 9.999962254545695 9.999962254545695
vertex 0 9.999962254545695 5.000072502866833
endloop
endfacet
facet normal -0.19503512966137032 0.9807962572308138 0
outer loop
vertex -1.913404938048821 9.619474281191575 5.000072502866833
vertex 0 9.999962254545695 5.000072502866833
vertex 0 9.999962254545695 0
endloop
endfacet
facet normal -0.19508018574807237 0.9807872964140782 -0.000017923744452260902
outer loop
vertex -1.913404938048821 9.619474281191575 5.000072502866833
vertex 0 9.999962254545695 0
vertex -3.826809876097642 9.238803556649483 0
endloop
endfacet
facet normal -0.19512524066240786 0.9807783340064348 0
outer loop
vertex -1.913404938048821 9.619474281191575 5.000072502866833
vertex -3.826809876097642 9.238803556649483 0
vertex -3.826809876097642 9.238803556649483 5.000072502866833
endloop
endfacet
facet normal -0.1951252406624078 0.9807783340064344 0
outer loop
vertex -1.913404938048821 9.619474281191575 5.000072502866833
vertex -3.826809876097642 9.238803556649483 5.000072502866833
vertex -3.826809876097642 9.238803556649483 9.999962254545695
endloop
endfacet
facet normal -0.1950801857480701 0.9807872964140668 0.00001792439958382443
outer loop
vertex -1.913404938048821 9.619474281191575 5.000072502866833
vertex -3.826809876097642 9.238803556649483 9.999962254545695
vertex 0 9.999962254545695 9.999962254545695
endloop
endfacet
facet normal -0.5555861907646971 0.8314589494566604 0
outer loop
vertex -3.826809876097642 9.238803556649483 9.999962254545695
vertex -3.826809876097642 9.238803556649483 5.000072502866833
vertex -7.071008964946034 7.071008964946034 5.000072502866833
endloop
endfacet
facet normal -0.5555861907646971 0.8314589494566604 0
outer loop
vertex -3.826809876097642 9.238803556649483 9.999962254545695
vertex -7.071008964946034 7.071008964946034 5.000072502866833
vertex -7.071008964946034 7.071008964946034 9.999962254545695
endloop
endfacet
facet normal -0.5555609868164665 0.8314757903435998 0
outer loop
vertex -3.826809876097642 9.238803556649483 5.000072502866833
vertex -3.826809876097642 9.238803556649483 0
vertex -6.758869935892798 7.279710821608092 0
endloop
endfacet
facet normal -0.5555609868164665 0.8314757903435998 0
outer loop
vertex -3.826809876097642 9.238803556649483 5.000072502866833
vertex -6.758869935892798 7.279710821608092 0
vertex -6.758869935892798 7.279710821608092 5.000072502866833
endloop
endfacet
facet normal -0.9807872965716222 0.19508018577940858 0
outer loop
vertex -9.543267035807968 2.296085925658585 5.000072502866833
vertex -9.238803556649483 3.826809876097642 9.999962254545695
vertex -9.238803556649483 3.826809876097642 5.000072502866833
endloop
endfacet
facet normal -0.9807872965716222 0.19508018577940858 0
outer loop
vertex -9.543267035807968 2.296085925658585 5.000072502866833
vertex -9.238803556649483 3.826809876097642 5.000072502866833
vertex -9.238803556649483 3.826809876097642 0
endloop
endfacet
facet normal -0.9807872965716224 0.19508018577940817 -1.3657874436369826e-16
outer loop
vertex -9.543267035807968 2.296085925658585 5.000072502866833
vertex -9.238803556649483 3.826809876097642 0
vertex -9.999962254545695 0 0
endloop
endfacet
facet normal -0.9807872965716224 0.1950801857794079 0
outer loop
vertex -9.543267035807968 2.296085925658585 5.000072502866833
vertex -9.999962254545695 0 0
vertex -9.999962254545695 0 9.999962254545695
endloop
endfacet
facet normal -0.9807872965716223 0.19508018577940814 1.3658373645932908e-16
outer loop
vertex -9.543267035807968 2.296085925658585 5.000072502866833
vertex -9.999962254545695 0 9.999962254545695
vertex -9.238803556649483 3.826809876097642 9.999962254545695
endloop
endfacet
facet normal -0.9807872965716224 -0.1950801857794079 0
outer loop
vertex -9.543267035807968 -2.296085925658585 5.000072502866833
vertex -9.999962254545695 0 9.999962254545695
vertex -9.999962254545695 0 0
endloop
endfacet
facet normal -0.9807872965716224 -0.19508018577940817 -1.3657874436369826e-16
outer loop
vertex -9.543267035807968 -2.296085925658585 5.000072502866833
vertex -9.999962254545695 0 0
vertex -9.238803556649483 -3.826809876097642 0
endloop
endfacet
facet normal -0.9807872965716222 -0.19508018577940858 0
outer loop
vertex -9.543267035807968 -2.296085925658585 5.000072502866833
vertex -9.238803556649483 -3.826809876097642 0
vertex -9.238803556649483 -3.826809876097642 5.000072502866833
endloop
endfacet
facet normal -0.9807872965716222 -0.19508018577940858 0
outer loop
vertex -9.543267035807968 -2.296085925658585 5.000072502866833
vertex -9.238803556649483 -3.826809876097642 5.000072502866833
vertex -9.238803556649483 -3.826809876097642 9.999962254545695
endloop
endfacet
facet normal -0.9807872965716223 -0.19508018577940814 1.3658373645932908e-16
outer loop
vertex -9.543267035807968 -2.296085925658585 5.000072502866833
vertex -9.238803556649483 -3.826809876097642 9.999962254545695
vertex -9.999962254545695 0 9.999962254545695
endloop
endfacet
facet normal -0.19503512966137118 -0.9807962572308134 0
outer loop
vertex -1.913404938048821 -9.619291530003604 5.000072502866833
vertex -3.826809876097642 -9.238803556649483 9.999962254545695
vertex -3.826809876097642 -9.238803556649483 5.000072502866833
endloop
endfacet
facet normal -0.1950351296613712 -0.9807962572308137 0
outer loop
vertex -1.913404938048821 -9.619291530003604 5.000072502866833
vertex -3.826809876097642 -9.238803556649483 5.000072502866833
vertex -3.826809876097642 -9.238803556649483 0
endloop
endfacet
facet normal -0.19508018574807237 -0.9807872964140782 0.000017923744451913764
outer loop
vertex -1.913404938048821 -9.619291530003604 5.000072502866833
vertex -3.826809876097642 -9.238803556649483 0
vertex 0 -9.999962254545695 0
endloop
endfacet
facet normal -0.19512524066240694 -0.9807783340064348 0
outer loop
vertex -1.913404938048821 -9.619291530003604 5.000072502866833
vertex 0 -9.999962254545695 0
vertex 0 -9.999962254545695 5.000072502866833
endloop
endfacet
facet normal -0.19512524066240697 -0.9807783340064349 0
outer loop
vertex -1.913404938048821 -9.619291530003604 5.000072502866833
vertex 0 -9.999962254545695 5.000072502866833
vertex 0 -9.999962254545695 9.999962254545695
endloop
endfacet
facet normal -0.1950801857480701 -0.9807872964140668 -0.00001792439958347728
outer loop
vertex -1.913404938048821 -9.619291530003604 5.000072502866833
vertex 0 -9.999962254545695 9.999962254545695
vertex -3.826809876097642 -9.238803556649483 9.999962254545695
endloop
endfacet
facet normal 0.8314589494566602 -0.5555861907646974 0
outer loop
vertex 8.154906260797759 -5.448909420521838 5.000072502866833
vertex 7.071008964946034 -7.071008964946034 9.999962254545695
vertex 7.071008964946034 -7.071008964946034 5.000072502866833
endloop
endfacet
facet normal 0.8314589494566602 -0.5555861907646973 0
outer loop
vertex 8.154906260797759 -5.448909420521838 5.000072502866833
vertex 7.071008964946034 -7.071008964946034 5.000072502866833
vertex 7.071008964946034 -7.071008964946034 0
endloop
endfacet
facet normal 0.8314589494566604 -0.5555861907646973 -1.0243296581658047e-16
outer loop
vertex 8.154906260797759 -5.448909420521838 5.000072502866833
vertex 7.071008964946034 -7.071008964946034 0
vertex 9.238803556649483 -3.826809876097642 0
endloop
endfacet
facet normal 0.8314589494566605 -0.5555861907646971 0
outer loop
vertex 8.154906260797759 -5.448909420521838 5.000072502866833
vertex 9.238803556649483 -3.826809876097642 0
vertex 9.238803556649483 -3.826809876097642 5.000072502866833
endloop
endfacet
facet normal 0.8314589494566605 -0.555586190764697 0
outer loop
vertex 8.154906260797759 -5.448909420521838 5.000072502866833
vertex 9.238803556649483 -3.826809876097642 5.000072502866833
vertex 9.238803556649483 -3.826809876097642 9.999962254545695
endloop
endfacet
facet normal 0.8314589494566603 -0.5555861907646973 1.0243670984837319e-16
outer loop
vertex 8.154906260797759 -5.448909420521838 5.000072502866833
vertex 9.238803556649483 -3.826809876097642 9.999962254545695
vertex 7.071008964946034 -7.071008964946034 9.999962254545695
endloop
endfacet
facet normal 0 0 1
outer loop
vertex 0 0 9.999962254545695
vertex -3.826809876097642 9.238803556649483 9.999962254545695
vertex -7.071008964946034 7.071008964946034 9.999962254545695
endloop
endfacet
facet normal 0 0 1
outer loop
vertex 0 0 9.999962254545695
vertex -7.071008964946034 7.071008964946034 9.999962254545695
vertex -9.238803556649483 3.826809876097642 9.999962254545695
endloop
endfacet
facet normal 0 0 1
outer loop
vertex 0 0 9.999962254545695
vertex -9.238803556649483 3.826809876097642 9.999962254545695
vertex -9.999962254545695 0 9.999962254545695
endloop
endfacet
facet normal 0 0 1
outer loop
vertex 0 0 9.999962254545695
vertex -9.999962254545695 0 9.999962254545695
vertex -9.238803556649483 -3.826809876097642 9.999962254545695
endloop
endfacet
facet normal 0 0 1
outer loop
vertex 0 0 9.999962254545695
vertex -9.238803556649483 -3.826809876097642 9.999962254545695
vertex -7.071008964946034 -7.071008964946034 9.999962254545695
endloop
endfacet
facet normal 0 0 1
outer loop
vertex 0 0 9.999962254545695
vertex -7.071008964946034 -7.071008964946034 9.999962254545695
vertex -3.826809876097642 -9.238803556649483 9.999962254545695
endloop
endfacet
facet normal 0 0 1
outer loop
vertex 0 0 9.999962254545695
vertex -3.826809876097642 -9.238803556649483 9.999962254545695
vertex 0 -9.999962254545695 9.999962254545695
endloop
endfacet
facet normal 0 0 1
outer loop
vertex 0 0 9.999962254545695
vertex 0 -9.999962254545695 9.999962254545695
vertex 3.826809876097642 -9.238803556649483 9.999962254545695
endloop
endfacet
facet normal 0 0 1
outer loop
vertex 0 0 9.999962254545695
vertex 3.826809876097642 -9.238803556649483 9.999962254545695
vertex 7.071008964946034 -7.071008964946034 9.999962254545695
endloop
endfacet
facet normal 0 0 1
outer loop
vertex 0 0 9.999962254545695
vertex 7.071008964946034 -7.071008964946034 9.999962254545695
vertex 9.238803556649483 -3.826809876097642 9.999962254545695
endloop
endfacet
facet normal 0 0 1
outer loop
vertex 0 0 9.999962254545695
vertex 9.238803556649483 -3.826809876097642 9.999962254545695
vertex 9.999962254545695 0 9.999962254545695
endloop
endfacet
facet normal 0 0 1
outer loop
vertex 0 0 9.999962254545695
vertex 9.999962254545695 0 9.999962254545695
vertex 9.238803556649483 3.826809876097642 9.999962254545695
endloop
endfacet
facet normal 0 0 1
outer loop
vertex 0 0 9.999962254545695
vertex 9.238803556649483 3.826809876097642 9.999962254545695
vertex 7.071008964946034 7.071008964946034 9.999962254545695
endloop
endfacet
facet normal 0 0 1
outer loop
vertex 0 0 9.999962254545695
vertex 7.071008964946034 7.071008964946034 9.999962254545695
vertex 3.826809876097642 9.238803556649483 9.999962254545695
endloop
endfacet
facet normal 0 0 1
outer loop
vertex 0 0 9.999962254545695
vertex 3.826809876097642 9.238803556649483 9.999962254545695
vertex 0 9.999962254545695 9.999962254545695
endloop
endfacet
facet normal 0 0 1
outer loop
vertex 0 0 9.999962254545695
vertex 0 9.999962254545695 9.999962254545695
vertex -3.826809876097642 9.238803556649483 9.999962254545695
endloop
endfacet
facet normal 0 0 -1
outer loop
vertex 1.0679979424983104 9.787605374124231 0
vertex -1.0679979424983104 9.787605374124231 0
vertex 0 9.999962254545695 0
endloop
endfacet
facet normal 0 0 -1
outer loop
vertex 4.377621956640063 9.787605374124231 0
vertex 1.0679979424983104 9.787605374124231 0
vertex 3.7082043551049306 11.412628937555953 0
endloop
endfacet
facet normal 0 0 -0.9999999999999999
outer loop
vertex 0.09174109636108005 9.274622789491659 0
vertex 1.0679979424983104 9.787605374124231 0
vertex 4.377621956640063 9.787605374124231 0
endloop
endfacet
facet normal 0 0 -0.9999999999999999
outer loop
vertex 0.09174109636108005 9.274622789491659 0
vertex 4.377621956640063 9.787605374124231 0
vertex 4.898462842355357 8.52278440218193 0
endloop
endfacet
facet normal 0 0 -0.9999999999999999
outer loop
vertex 0.09174109636108005 9.274622789491659 0
vertex 4.898462842355357 8.52278440218193 0
vertex -4.898462842355357 8.52278440218193 0
endloop
endfacet
facet normal 0 0 -1
outer loop
vertex 0.09174109636108005 9.274622789491659 0
vertex -4.898462842355357 8.52278440218193 0
vertex -3.826809876097642 9.238803556649483 0
endloop
endfacet
facet normal 0 0 -1
outer loop
vertex 0.09174109636108005 9.274622789491659 0
vertex -3.826809876097642 9.238803556649483 0
vertex -1.0679979424983104 9.787605374124231 0
endloop
endfacet
facet normal 0 0 -1
outer loop
vertex 0.09174109636108005 9.274622789491659 0
vertex -1.0679979424983104 9.787605374124231 0
vertex 1.0679979424983104 9.787605374124231 0
endloop
endfacet
facet normal 0 0 -1
outer loop
vertex 4.898462842355357 8.52278440218193 0
vertex 6.758869935892798 7.279710821608092 0
vertex -6.758869935892798 7.279710821608092 0
endloop
endfacet
facet normal 0 0 -1
outer loop
vertex 4.898462842355357 8.52278440218193 0
vertex -6.758869935892798 7.279710821608092 0
vertex -4.898462842355357 8.52278440218193 0
endloop
endfacet
facet normal 0 0 -1
outer loop
vertex -0.4395166070685209 6.17059386181647 0
vertex 6.758869935892798 7.279710821608092 0
vertex 7.071008964946034 7.071008964946034 0
endloop
endfacet
facet normal 0 0 -0.9999999999999999
outer loop
vertex -0.4395166070685209 6.17059386181647 0
vertex 7.071008964946034 7.071008964946034 0
vertex 9.009816318122724 4.169651104729885 0
endloop
endfacet
facet normal 0 0 -1
outer loop
vertex -0.4395166070685209 6.17059386181647 0
vertex 9.009816318122724 4.169651104729885 0
vertex -9.009816318122724 4.169651104729885 0
endloop
endfacet
facet normal 0 0 -1
outer loop
vertex -0.4395166070685209 6.17059386181647 0
vertex -9.009816318122724 4.169651104729885 0
vertex -9.70829135854513 7.0534648509008875 0
endloop
endfacet
facet normal 0 0 -1
outer loop
vertex -0.4395166070685209 6.17059386181647 0
vertex -9.70829135854513 7.0534648509008875 0
vertex -6.758869935892798 7.279710821608092 0
endloop
endfacet
facet normal 0 0 -1
outer loop
vertex -0.4395166070685209 6.17059386181647 0
vertex -6.758869935892798 7.279710821608092 0
vertex 6.758869935892798 7.279710821608092 0
endloop
endfacet
facet normal 0 0 -1
outer loop
vertex 0 3.348001763615511 0
vertex 9.009816318122724 4.169651104729885 0
vertex 9.238803556649483 3.826809876097642 0
endloop
endfacet
facet normal 0 0 -1
outer loop
vertex 0 3.348001763615511 0
vertex 9.238803556649483 3.826809876097642 0
vertex 9.592609856559944 2.047727061206976 0
endloop
endfacet
facet normal 0 0 -1
outer loop
vertex 0 3.348001763615511 0
vertex 9.592609856559944 2.047727061206976 0
vertex -9.592609856559944 2.047727061206976 0
endloop
endfacet
facet normal 0 0 -1
outer loop
vertex 0 3.348001763615511 0
vertex -9.592609856559944 2.047727061206976 0
vertex -9.238803556649483 3.826809876097642 0
endloop
endfacet
facet normal 0 0 -1
outer loop
vertex 0 3.348001763615511 0
vertex -9.238803556649483 3.826809876097642 0
vertex -9.009816318122724 4.169651104729885 0
endloop
endfacet
facet normal 0 0 -1
outer loop
vertex 0 3.348001763615511 0
vertex -9.009816318122724 4.169651104729885 0
vertex 9.009816318122724 4.169651104729885 0
endloop
endfacet
facet normal 0 0 -1
outer loop
vertex 0.33333816685778883 0 0
vertex 9.592609856559944 2.047727061206976 0
vertex 11.999991255692429 0 0
endloop
endfacet
facet normal 0 0 -1
outer loop
vertex 0.33333816685778883 0 0
vertex 11.999991255692429 0 0
vertex 9.592609856559944 -2.047727061206976 0
endloop
endfacet
facet normal 0 0 -1
outer loop
vertex 0.33333816685778883 0 0
vertex 9.592609856559944 -2.047727061206976 0
vertex -9.592609856559944 -2.047727061206976 0
endloop
endfacet
facet normal 0 0 -1
outer loop
vertex 0.33333816685778883 0 0
vertex -9.592609856559944 -2.047727061206976 0
vertex -9.999962254545695 0 0
endloop
endfacet
facet normal 0 0 -1
outer loop
vertex 0.33333816685778883 0 0
vertex -9.999962254545695 0 0
vertex -9.592609856559944 2.047727061206976 0
endloop
endfacet
facet normal 0 0 -1
outer loop
vertex 0.33333816685778883 0 0
vertex -9.592609856559944 2.047727061206976 0
vertex 9.592609856559944 2.047727061206976 0
endloop
endfacet
facet normal 0 0 -1
outer loop
vertex 0 -3.348001763615511 0
vertex 9.592609856559944 -2.047727061206976 0
vertex 9.238803556649483 -3.826809876097642 0
endloop
endfacet
facet normal 0 0 -1
outer loop
vertex 0 -3.348001763615511 0
vertex 9.238803556649483 -3.826809876097642 0
vertex 9.009816318122724 -4.169651104729885 0
endloop
endfacet
facet normal 0 0 -1
outer loop
vertex 0 -3.348001763615511 0
vertex 9.009816318122724 -4.169651104729885 0
vertex -9.009816318122724 -4.169651104729885 0
endloop
endfacet
facet normal 0 0 -1
outer loop
vertex 0 -3.348001763615511 0
vertex -9.009816318122724 -4.169651104729885 0
vertex -9.238803556649483 -3.826809876097642 0
endloop
endfacet
facet normal 0 0 -1
outer loop
vertex 0 -3.348001763615511 0
vertex -9.238803556649483 -3.826809876097642 0
vertex -9.592609856559944 -2.047727061206976 0
endloop
endfacet
facet normal 0 0 -1
outer loop
vertex 0 -3.348001763615511 0
vertex -9.592609856559944 -2.047727061206976 0
vertex 9.592609856559944 -2.047727061206976 0
endloop
endfacet
facet normal 0 0 -0.9999999999999999
outer loop
vertex -0.4395166070685209 -6.17059386181647 0
vertex 9.009816318122724 -4.169651104729885 0
vertex 7.071008964946034 -7.071008964946034 0
endloop
endfacet
facet normal 0 0 -1
outer loop
vertex -0.4395166070685209 -6.17059386181647 0
vertex 7.071008964946034 -7.071008964946034 0
vertex 6.758869935892798 -7.279710821608092 0
endloop
endfacet
facet normal 0 0 -1
outer loop
vertex -0.4395166070685209 -6.17059386181647 0
vertex 6.758869935892798 -7.279710821608092 0
vertex -6.758869935892798 -7.279710821608092 0
endloop
endfacet
facet normal 0 0 -1
outer loop
vertex -0.4395166070685209 -6.17059386181647 0
vertex -6.758869935892798 -7.279710821608092 0
vertex -9.70829135854513 -7.0534648509008875 0
endloop
endfacet
facet normal 0 0 -1
outer loop
vertex -0.4395166070685209 -6.17059386181647 0
vertex -9.70829135854513 -7.0534648509008875 0
vertex -9.009816318122724 -4.169651104729885 0
endloop
endfacet
facet normal 0 0 -1
outer loop
vertex -0.4395166070685209 -6.17059386181647 0
vertex -9.009816318122724 -4.169651104729885 0
vertex 9.009816318122724 -4.169651104729885 0
endloop
endfacet
facet normal 0 0 -0.9999999999999999
outer loop
vertex 6.758869935892798 -7.279710821608092 0
vertex 4.898462842355357 -8.52278440218193 0
vertex -4.898462842355357 -8.52278440218193 0
endloop
endfacet
facet normal 0 0 -1
outer loop
vertex 6.758869935892798 -7.279710821608092 0
vertex -4.898462842355357 -8.52278440218193 0
vertex -6.758869935892798 -7.279710821608092 0
endloop
endfacet
facet normal 0 0 -1
outer loop
vertex 0.09174109636108005 -9.274440038303688 0
vertex 4.898462842355357 -8.52278440218193 0
vertex 4.377621956640063 -9.787605374124231 0
endloop
endfacet
facet normal 0 0 -1
outer loop
vertex 0.09174109636108005 -9.274440038303688 0
vertex 4.377621956640063 -9.787605374124231 0
vertex 1.0679979424983104 -9.787605374124231 0
endloop
endfacet
facet normal 0 0 -1
outer loop
vertex 0.09174109636108005 -9.274440038303688 0
vertex 1.0679979424983104 -9.787605374124231 0
vertex -1.0679979424983104 -9.787605374124231 0
endloop
endfacet
facet normal 0 0 -1
outer loop
vertex 0.09174109636108005 -9.274440038303688 0
vertex -1.0679979424983104 -9.787605374124231 0
vertex -3.826809876097642 -9.238803556649483 0
endloop
endfacet
facet normal 0 0 -1
outer loop
vertex 0.09174109636108005 -9.274440038303688 0
vertex -3.826809876097642 -9.238803556649483 0
vertex -4.898462842355357 -8.52278440218193 0
endloop
endfacet
facet normal 0 0 -1
outer loop
vertex 0.09174109636108005 -9.274440038303688 0
vertex -4.898462842355357 -8.52278440218193 0
vertex 4.898462842355357 -8.52278440218193 0
endloop
endfacet
facet normal 0 0 -1
outer loop
vertex 1.0679979424983104 -9.787605374124231 0
vertex 0 -9.999962254545695 0
vertex -1.0679979424983104 -9.787605374124231 0
endloop
endfacet
facet normal 0 0 -1
outer loop
vertex 4.377621956640063 -9.787605374124231 0
vertex 3.7082043551049306 -11.412628937555953 0
vertex 1.0679979424983104 -9.787605374124231 0
endloop
endfacet
facet normal 0.9807872965716223 -0.19508018577940814 0
outer loop
vertex 9.238803556649483 -3.826809876097642 9.999962254545695
vertex 9.238803556649483 -3.826809876097642 5.000072502866833
vertex 9.999962254545695 0 5.000072502866833
endloop
endfacet
facet normal 0.9807872965716223 -0.19508018577940814 0
outer loop
vertex 9.238803556649483 -3.826809876097642 9.999962254545695
vertex 9.999962254545695 0 5.000072502866833
vertex 9.999962254545695 0 9.999962254545695
endloop
endfacet
facet normal 0.9807932199327752 -0.19505040306007806 0
outer loop
vertex 9.238803556649483 -3.826809876097642 5.000072502866833
vertex 9.238803556649483 -3.826809876097642 0
vertex 9.592609856559944 -2.047727061206976 0
endloop
endfacet
facet normal 0.9807932199327752 -0.19505040306007806 0
outer loop
vertex 9.238803556649483 -3.826809876097642 5.000072502866833
vertex 9.592609856559944 -2.047727061206976 0
vertex 9.592609856559944 -2.047727061206976 5.000072502866833
endloop
endfacet
facet normal 0.9807872965716223 0.19508018577940814 0
outer loop
vertex 9.999962254545695 0 9.999962254545695
vertex 9.999962254545695 0 5.000072502866833
vertex 9.238803556649483 3.826809876097642 5.000072502866833
endloop
endfacet
facet normal 0.9807872965716223 0.19508018577940814 0
outer loop
vertex 9.999962254545695 0 9.999962254545695
vertex 9.238803556649483 3.826809876097642 5.000072502866833
vertex 9.238803556649483 3.826809876097642 9.999962254545695
endloop
endfacet
facet normal 0.9807932199327752 0.19505040306007806 0
outer loop
vertex 9.592609856559944 2.047727061206976 5.000072502866833
vertex 9.592609856559944 2.047727061206976 0
vertex 9.238803556649483 3.826809876097642 0
endloop
endfacet
facet normal 0.9807932199327752 0.19505040306007806 0
outer loop
vertex 9.592609856559944 2.047727061206976 5.000072502866833
vertex 9.238803556649483 3.826809876097642 0
vertex 9.238803556649483 3.826809876097642 5.000072502866833
endloop
endfacet
facet normal 0.19508018577940814 0.9807872965716223 0
outer loop
vertex 3.826809876097642 9.238803556649483 9.999962254545695
vertex 3.826809876097642 9.238803556649483 5.000072502866833
vertex 0 9.999962254545695 5.000072502866833
endloop
endfacet
facet normal 0.19508018577940814 0.9807872965716223 0
outer loop
vertex 3.826809876097642 9.238803556649483 9.999962254545695
vertex 0 9.999962254545695 5.000072502866833
vertex 0 9.999962254545695 9.999962254545695
endloop
endfacet
facet normal 0.19501866120329736 0.9807995319036777 0
outer loop
vertex 1.0679979424983104 9.787605374124231 5.000072502866833
vertex 1.0679979424983104 9.787605374124231 0
vertex 0 9.999962254545695 0
endloop
endfacet
facet normal 0.19501866120329736 0.9807995319036777 0
outer loop
vertex 1.0679979424983104 9.787605374124231 5.000072502866833
vertex 0 9.999962254545695 0
vertex 0 9.999962254545695 5.000072502866833
endloop
endfacet
facet normal -0.8314589494566604 0.5555861907646971 0
outer loop
vertex -7.071008964946034 7.071008964946034 9.999962254545695
vertex -7.071008964946034 7.071008964946034 5.000072502866833
vertex -9.238803556649483 3.826809876097642 5.000072502866833
endloop
endfacet
facet normal -0.8314589494566604 0.5555861907646971 0
outer loop
vertex -7.071008964946034 7.071008964946034 9.999962254545695
vertex -9.238803556649483 3.826809876097642 5.000072502866833
vertex -9.238803556649483 3.826809876097642 9.999962254545695
endloop
endfacet
facet normal -0.8315726196255352 0.5554160407200397 0
outer loop
vertex -9.009816318122724 4.169651104729885 5.000072502866833
vertex -9.009816318122724 4.169651104729885 0
vertex -9.238803556649483 3.826809876097642 0
endloop
endfacet
facet normal -0.8315726196255352 0.5554160407200397 0
outer loop
vertex -9.009816318122724 4.169651104729885 5.000072502866833
vertex -9.238803556649483 3.826809876097642 0
vertex -9.238803556649483 3.826809876097642 5.000072502866833
endloop
endfacet
facet normal -0.8314589494566604 -0.5555861907646971 0
outer loop
vertex -9.238803556649483 -3.826809876097642 9.999962254545695
vertex -9.238803556649483 -3.826809876097642 5.000072502866833
vertex -7.071008964946034 -7.071008964946034 5.000072502866833
endloop
endfacet
facet normal -0.8314589494566604 -0.5555861907646971 0
outer loop
vertex -9.238803556649483 -3.826809876097642 9.999962254545695
vertex -7.071008964946034 -7.071008964946034 5.000072502866833
vertex -7.071008964946034 -7.071008964946034 9.999962254545695
endloop
endfacet
facet normal -0.8315726196255352 -0.5554160407200397 0
outer loop
vertex -9.238803556649483 -3.826809876097642 5.000072502866833
vertex -9.238803556649483 -3.826809876097642 0
vertex -9.009816318122724 -4.169651104729885 0
endloop
endfacet
facet normal -0.8315726196255352 -0.5554160407200397 0
outer loop
vertex -9.238803556649483 -3.826809876097642 5.000072502866833
vertex -9.009816318122724 -4.169651104729885 0
vertex -9.009816318122724 -4.169651104729885 5.000072502866833
endloop
endfacet
facet normal -0.5555861907646971 -0.8314589494566604 0
outer loop
vertex -7.071008964946034 -7.071008964946034 9.999962254545695
vertex -7.071008964946034 -7.071008964946034 5.000072502866833
vertex -3.826809876097642 -9.238803556649483 5.000072502866833
endloop
endfacet
facet normal -0.5555861907646971 -0.8314589494566604 0
outer loop
vertex -7.071008964946034 -7.071008964946034 9.999962254545695
vertex -3.826809876097642 -9.238803556649483 5.000072502866833
vertex -3.826809876097642 -9.238803556649483 9.999962254545695
endloop
endfacet
facet normal -0.5555609868164665 -0.8314757903435998 0
outer loop
vertex -6.758869935892798 -7.279710821608092 5.000072502866833
vertex -6.758869935892798 -7.279710821608092 0
vertex -3.826809876097642 -9.238803556649483 0
endloop
endfacet
facet normal -0.5555609868164665 -0.8314757903435998 0
outer loop
vertex -6.758869935892798 -7.279710821608092 5.000072502866833
vertex -3.826809876097642 -9.238803556649483 0
vertex -3.826809876097642 -9.238803556649483 5.000072502866833
endloop
endfacet
facet normal 0.19508018577940814 -0.9807872965716223 0
outer loop
vertex 0 -9.999962254545695 9.999962254545695
vertex 0 -9.999962254545695 5.000072502866833
vertex 3.826809876097642 -9.238803556649483 5.000072502866833
endloop
endfacet
facet normal 0.19508018577940814 -0.9807872965716223 0
outer loop
vertex 0 -9.999962254545695 9.999962254545695
vertex 3.826809876097642 -9.238803556649483 5.000072502866833
vertex 3.826809876097642 -9.238803556649483 9.999962254545695
endloop
endfacet
facet normal 0.19501866120329736 -0.9807995319036777 0
outer loop
vertex 0 -9.999962254545695 5.000072502866833
vertex 0 -9.999962254545695 0
vertex 1.0679979424983104 -9.787605374124231 0
endloop
endfacet
facet normal 0.19501866120329736 -0.9807995319036777 0
outer loop
vertex 0 -9.999962254545695 5.000072502866833
vertex 1.0679979424983104 -9.787605374124231 0
vertex 1.0679979424983104 -9.787605374124231 5.000072502866833
endloop
endfacet
facet normal 0.5555861907646971 -0.8314589494566604 0
outer loop
vertex 3.826809876097642 -9.238803556649483 9.999962254545695
vertex 3.826809876097642 -9.238803556649483 5.000072502866833
vertex 7.071008964946034 -7.071008964946034 5.000072502866833
endloop
endfacet
facet normal 0.5555861907646971 -0.8314589494566604 0
outer loop
vertex 3.826809876097642 -9.238803556649483 9.999962254545695
vertex 7.071008964946034 -7.071008964946034 5.000072502866833
vertex 7.071008964946034 -7.071008964946034 9.999962254545695
endloop
endfacet
facet normal 0.5556037095187225 -0.8314472430461448 0
outer loop
vertex 4.898462842355357 -8.52278440218193 5.000072502866833
vertex 4.898462842355357 -8.52278440218193 0
vertex 7.071008964946034 -7.071008964946034 0
endloop
endfacet
facet normal 0.5556037095187225 -0.8314472430461448 0
outer loop
vertex 4.898462842355357 -8.52278440218193 5.000072502866833
vertex 7.071008964946034 -7.071008964946034 0
vertex 7.071008964946034 -7.071008964946034 5.000072502866833
endloop
endfacet
facet normal 0.647915259271544 -0.7617124239521685 0
outer loop
vertex 9.592609856559944 -2.047727061206976 5.000072502866833
vertex 9.592609856559944 -2.047727061206976 0
vertex 11.999991255692429 0 0
endloop
endfacet
facet normal 0.647915259271544 -0.7617124239521685 0
outer loop
vertex 9.592609856559944 -2.047727061206976 5.000072502866833
vertex 11.999991255692429 0 0
vertex 11.999991255692429 0 5.000072502866833
endloop
endfacet
facet normal 0.9246417645639725 0.38083803279612655 0
outer loop
vertex 4.898462842355357 8.52278440218193 5.000072502866833
vertex 4.898462842355357 8.52278440218193 0
vertex 3.7082043551049306 11.412628937555953 0
endloop
endfacet
facet normal 0.9246417645639725 0.38083803279612655 0
outer loop
vertex 4.898462842355357 8.52278440218193 5.000072502866833
vertex 3.7082043551049306 11.412628937555953 0
vertex 3.7082043551049306 11.412628937555953 5.000072502866833
endloop
endfacet
facet normal -0.5241632026823811 0.8516178350373771 0
outer loop
vertex 3.7082043551049306 11.412628937555953 5.000072502866833
vertex 3.7082043551049306 11.412628937555953 0
vertex 1.0679979424983104 9.787605374124231 0
endloop
endfacet
facet normal -0.5241632026823811 0.8516178350373771 0
outer loop
vertex 3.7082043551049306 11.412628937555953 5.000072502866833
vertex 1.0679979424983104 9.787605374124231 0
vertex 1.0679979424983104 9.787605374124231 5.000072502866833
endloop
endfacet
facet normal -0.9718988018045212 -0.23539906340284433 0
outer loop
vertex -9.70829135854513 7.0534648509008875 5.000072502866833
vertex -9.70829135854513 7.0534648509008875 0
vertex -9.009816318122724 4.169651104729885 0
endloop
endfacet
facet normal -0.9718988018045212 -0.23539906340284433 0
outer loop
vertex -9.70829135854513 7.0534648509008875 5.000072502866833
vertex -9.009816318122724 4.169651104729885 0
vertex -9.009816318122724 4.169651104729885 5.000072502866833
endloop
endfacet
facet normal -0.9718988018045212 0.23539906340284433 0
outer loop
vertex -9.009816318122724 -4.169651104729885 5.000072502866833
vertex -9.009816318122724 -4.169651104729885 0
vertex -9.70829135854513 -7.0534648509008875 0
endloop
endfacet
facet normal -0.9718988018045212 0.23539906340284433 0
outer loop
vertex -9.009816318122724 -4.169651104729885 5.000072502866833
vertex -9.70829135854513 -7.0534648509008875 0
vertex -9.70829135854513 -7.0534648509008875 5.000072502866833
endloop
endfacet
facet normal -0.07648390053470114 -0.99707081642128 0
outer loop
vertex -9.70829135854513 -7.0534648509008875 5.000072502866833
vertex -9.70829135854513 -7.0534648509008875 0
vertex -6.758869935892798 -7.279710821608092 0
endloop
endfacet
facet normal -0.07648390053470114 -0.99707081642128 0
outer loop
vertex -9.70829135854513 -7.0534648509008875 5.000072502866833
vertex -6.758869935892798 -7.279710821608092 0
vertex -6.758869935892798 -7.279710821608092 5.000072502866833
endloop
endfacet
facet normal -0.5241632026823811 -0.8516178350373771 0
outer loop
vertex 1.0679979424983104 -9.787605374124231 5.000072502866833
vertex 1.0679979424983104 -9.787605374124231 0
vertex 3.7082043551049306 -11.412628937555953 0
endloop
endfacet
facet normal -0.5241632026823811 -0.8516178350373771 0
outer loop
vertex 1.0679979424983104 -9.787605374124231 5.000072502866833
vertex 3.7082043551049306 -11.412628937555953 0
vertex 3.7082043551049306 -11.412628937555953 5.000072502866833
endloop
endfacet
facet normal 0.9246417645639725 -0.38083803279612655 0
outer loop
vertex 3.7082043551049306 -11.412628937555953 5.000072502866833
vertex 3.7082043551049306 -11.412628937555953 0
vertex 4.898462842355357 -8.52278440218193 0
endloop
endfacet
facet normal 0.9246417645639725 -0.38083803279612655 0
outer loop
vertex 3.7082043551049306 -11.412628937555953 5.000072502866833
vertex 4.898462842355357 -8.52278440218193 0
vertex 4.898462842355357 -8.52278440218193 5.000072502866833
endloop
endfacet
facet normal 0 0 1
outer loop
vertex 1.0679979424983104 9.787605374124231 5.000072502866833
vertex 3.826809876097642 9.238803556649483 5.000072502866833
vertex 4.603685176159297 9.238803556649483 5.000072502866833
endloop
endfacet
facet normal 0 0 1
outer loop
vertex 1.0679979424983104 9.787605374124231 5.000072502866833
vertex 4.603685176159297 9.238803556649483 5.000072502866833
vertex 3.7082043551049306 11.412628937555953 5.000072502866833
endloop
endfacet
facet normal 0 0 1
outer loop
vertex 3.826809876097642 9.238803556649483 5.000072502866833
vertex 4.898462842355357 8.52278440218193 5.000072502866833
vertex 4.603685176159297 9.238803556649483 5.000072502866833
endloop
endfacet
facet normal 0 0 1
outer loop
vertex -9.478207612890548 7.071008964946034 5.000072502866833
vertex -7.071008964946034 7.071008964946034 5.000072502866833
vertex -6.758869935892798 7.279710821608092 5.000072502866833
endloop
endfacet
facet normal 0 0 0.9999999999999999
outer loop
vertex -9.478207612890548 7.071008964946034 5.000072502866833
vertex -9.70829135854513 7.0534648509008875 5.000072502866833
vertex -9.009816318122724 4.169651104729885 5.000072502866833
endloop
endfacet
facet normal 0 0 0.9999999999999999
outer loop
vertex -9.478207612890548 7.071008964946034 5.000072502866833
vertex -9.009816318122724 4.169651104729885 5.000072502866833
vertex -7.071008964946034 7.071008964946034 5.000072502866833
endloop
endfacet
facet normal 0 0 1
outer loop
vertex 9.999962254545695 0 5.000072502866833
vertex 11.999991255692429 0 5.000072502866833
vertex 9.592609856559944 2.047727061206976 5.000072502866833
endloop
endfacet
facet normal 0 0 1
outer loop
vertex 9.999962254545695 0 5.000072502866833
vertex 9.592609856559944 -2.047727061206976 5.000072502866833
vertex 11.999991255692429 0 5.000072502866833
endloop
endfacet
facet normal 0 0 1
outer loop
vertex -9.70829135854513 -7.0534648509008875 5.000072502866833
vertex -9.478207612890548 -7.071008964946034 5.000072502866833
vertex -7.071008964946034 -7.071008964946034 5.000072502866833
endloop
endfacet
facet normal 0 0 0.9999999999999999
outer loop
vertex -9.70829135854513 -7.0534648509008875 5.000072502866833
vertex -7.071008964946034 -7.071008964946034 5.000072502866833
vertex -9.009816318122724 -4.169651104729885 5.000072502866833
endloop
endfacet
facet normal 0 0 1
outer loop
vertex -9.478207612890548 -7.071008964946034 5.000072502866833
vertex -6.758869935892798 -7.279710821608092 5.000072502866833
vertex -7.071008964946034 -7.071008964946034 5.000072502866833
endloop
endfacet
facet normal 0 0 1
outer loop
vertex 3.826809876097642 -9.238803556649483 5.000072502866833
vertex 4.603685176159297 -9.238803556649483 5.000072502866833
vertex 4.898462842355357 -8.52278440218193 5.000072502866833
endloop
endfacet
facet normal 0 0 1
outer loop
vertex 3.826809876097642 -9.238803556649483 5.000072502866833
vertex 1.0679979424983104 -9.787605374124231 5.000072502866833
vertex 3.7082043551049306 -11.412628937555953 5.000072502866833
endloop
endfacet
facet normal 0 0 1
outer loop
vertex 3.826809876097642 -9.238803556649483 5.000072502866833
vertex 3.7082043551049306 -11.412628937555953 5.000072502866833
vertex 4.603685176159297 -9.238803556649483 5.000072502866833
endloop
endfacet
facet normal 0.647915259271544 0.7617124239521685 0
outer loop
vertex 11.999991255692429 0 5.000072502866833
vertex 11.999991255692429 0 0
vertex 9.592609856559944 2.047727061206976 0
endloop
endfacet
facet normal 0.647915259271544 0.7617124239521685 0
outer loop
vertex 11.999991255692429 0 5.000072502866833
vertex 9.592609856559944 2.047727061206976 0
vertex 9.592609856559944 2.047727061206976 5.000072502866833
endloop
endfacet
facet normal -0.07648390053470114 0.99707081642128 0
outer loop
vertex -6.758869935892798 7.279710821608092 5.000072502866833
vertex -6.758869935892798 7.279710821608092 0
vertex -9.70829135854513 7.0534648509008875 0
endloop
endfacet
facet normal -0.07648390053470114 0.99707081642128 0
outer loop
vertex -6.758869935892798 7.279710821608092 5.000072502866833
vertex -9.70829135854513 7.0534648509008875 0
vertex -9.70829135854513 7.0534648509008875 5.000072502866833
endloop
endfacet
endsolid JSCAD
