solid JSCAD
facet normal 0 -0.9999999999999999 0
outer loop
vertex 0 -19.99983333333334 10.000100000000003
vertex -19.99983333333334 -19.99983333333334 19.99983333333334
vertex -19.99983333333334 -19.99983333333334 10.000100000000003
endloop
endfacet
facet normal 0 -1 0
outer loop
vertex 0 -19.99983333333334 10.000100000000003
vertex -19.99983333333334 -19.99983333333334 10.000100000000003
vertex -19.99983333333334 -19.99983333333334 0
endloop
endfacet
facet normal 0 -1 0
outer loop
vertex 0 -19.99983333333334 10.000100000000003
vertex -19.99983333333334 -19.99983333333334 0
vertex 19.99983333333334 -19.99983333333334 0
endloop
endfacet
facet normal 0 -1 0
outer loop
vertex 0 -19.99983333333334 10.000100000000003
vertex 19.99983333333334 -19.99983333333334 0
vertex 19.99983333333334 -19.99983333333334 10.000100000000003
endloop
endfacet
facet normal 0 -0.9999999999999999 0
outer loop
vertex 0 -19.99983333333334 10.000100000000003
vertex 19.99983333333334 -19.99983333333334 10.000100000000003
vertex 19.99983333333334 -19.99983333333334 19.99983333333334
endloop
endfacet
facet normal 0 -0.9999999999999999 0
outer loop
vertex 0 -19.99983333333334 10.000100000000003
vertex 19.99983333333334 -19.99983333333334 19.99983333333334
vertex -19.99983333333334 -19.99983333333334 19.99983333333334
endloop
endfacet
facet normal 0.894427190999916 0.447213595499958 0
outer loop
vertex 8.999833333333337 2.0001666666666673 14.00006666666667
vertex 19.99983333333334 -19.99983333333334 19.99983333333334
vertex 19.99983333333334 -19.99983333333334 10.000100000000003
endloop
endfacet
facet normal 0.894427190999916 0.447213595499958 -1.0592257527488331e-16
outer loop
vertex 8.999833333333337 2.0001666666666673 14.00006666666667
vertex 19.99983333333334 -19.99983333333334 10.000100000000003
vertex 4.9998666666666685 10.000100000000003 10.000100000000003
endloop
endfacet
facet normal 0.8944271909999157 0.44721359549995804 3.1777549368731315e-16
outer loop
vertex 8.999833333333337 2.0001666666666673 14.00006666666667
vertex 4.9998666666666685 10.000100000000003 10.000100000000003
vertex 0 19.99983333333334 10.000100000000003
endloop
endfacet
facet normal 0.894427190999916 0.447213595499958 0
outer loop
vertex 8.999833333333337 2.0001666666666673 14.00006666666667
vertex 0 19.99983333333334 10.000100000000003
vertex 0 19.99983333333334 19.99983333333334
endloop
endfacet
facet normal 0.8944271909999157 0.4472135954999579 2.11852918507374e-16
outer loop
vertex 8.999833333333337 2.0001666666666673 14.00006666666667
vertex 0 19.99983333333334 19.99983333333334
vertex 19.99983333333334 -19.99983333333334 19.99983333333334
endloop
endfacet
facet normal 0.8944271909999157 0.4472135954999579 0
outer loop
vertex 4.9998666666666685 10.000100000000003 10.000100000000003
vertex 4.9998666666666685 10.000100000000003 0
vertex 0 19.99983333333334 0
endloop
endfacet
facet normal 0.8944271909999157 0.4472135954999579 0
outer loop
vertex 4.9998666666666685 10.000100000000003 10.000100000000003
vertex 0 19.99983333333334 0
vertex 0 19.99983333333334 10.000100000000003
endloop
endfacet
facet normal 0.8944304705815873 0.44720703627648817 0
outer loop
vertex 19.99983333333334 -19.99983333333334 10.000100000000003
vertex 19.99983333333334 -19.99983333333334 0
vertex 10.000100000000003 0 0
endloop
endfacet
facet normal 0.8944304705815873 0.44720703627648817 0
outer loop
vertex 19.99983333333334 -19.99983333333334 10.000100000000003
vertex 10.000100000000003 0 0
vertex 10.000100000000003 0 10.000100000000003
endloop
endfacet
facet normal 0 0 1
outer loop
vertex 0 19.99983333333334 19.99983333333334
vertex -19.99983333333334 -19.99983333333334 19.99983333333334
vertex 19.99983333333334 -19.99983333333334 19.99983333333334
endloop
endfacet
facet normal -0.894427190999916 0.447213595499958 0
outer loop
vertex -8.999833333333337 2.0001666666666673 14.00006666666667
vertex 0 19.99983333333334 19.99983333333334
vertex 0 19.99983333333334 10.000100000000003
endloop
endfacet
facet normal -0.8944271909999157 0.44721359549995804 3.1777549368731315e-16
outer loop
vertex -8.999833333333337 2.0001666666666673 14.00006666666667
vertex 0 19.99983333333334 10.000100000000003
vertex -4.9998666666666685 10.000100000000003 10.000100000000003
endloop
endfacet
facet normal -0.894427190999916 0.447213595499958 -1.0592257527488331e-16
outer loop
vertex -8.999833333333337 2.0001666666666673 14.00006666666667
vertex -4.9998666666666685 10.000100000000003 10.000100000000003
vertex -19.99983333333334 -19.99983333333334 10.000100000000003
endloop
endfacet
facet normal -0.894427190999916 0.447213595499958 0
outer loop
vertex -8.999833333333337 2.0001666666666673 14.00006666666667
vertex -19.99983333333334 -19.99983333333334 10.000100000000003
vertex -19.99983333333334 -19.99983333333334 19.99983333333334
endloop
endfacet
facet normal -0.8944271909999157 0.4472135954999579 2.11852918507374e-16
outer loop
vertex -8.999833333333337 2.0001666666666673 14.00006666666667
vertex -19.99983333333334 -19.99983333333334 19.99983333333334
vertex 0 19.99983333333334 19.99983333333334
endloop
endfacet
facet normal -0.8944304705815873 0.44720703627648817 0
outer loop
vertex -10.000100000000003 0 10.000100000000003
vertex -10.000100000000003 0 0
vertex -19.99983333333334 -19.99983333333334 0
endloop
endfacet
facet normal -0.8944304705815873 0.44720703627648817 0
outer loop
vertex -10.000100000000003 0 10.000100000000003
vertex -19.99983333333334 -19.99983333333334 0
vertex -19.99983333333334 -19.99983333333334 10.000100000000003
endloop
endfacet
facet normal -0.8944271909999157 0.4472135954999579 0
outer loop
vertex 0 19.99983333333334 10.000100000000003
vertex 0 19.99983333333334 0
vertex -4.9998666666666685 10.000100000000003 0
endloop
endfacet
facet normal -0.8944271909999157 0.4472135954999579 0
outer loop
vertex 0 19.99983333333334 10.000100000000003
vertex -4.9998666666666685 10.000100000000003 0
vertex -4.9998666666666685 10.000100000000003 10.000100000000003
endloop
endfacet
facet normal 0 0 -1
outer loop
vertex 4.9998666666666685 10.000100000000003 0
vertex -4.9998666666666685 10.000100000000003 0
vertex 0 19.99983333333334 0
endloop
endfacet
facet normal 0 0 -1
outer loop
vertex -10.000100000000003 -10.000100000000003 0
vertex -14.999966666666671 -10.000100000000003 0
vertex -10.000100000000003 0 0
endloop
endfacet
facet normal 0 0 -1
outer loop
vertex 14.999966666666671 -10.000100000000003 0
vertex 10.000100000000003 -10.000100000000003 0
vertex 10.000100000000003 0 0
endloop
endfacet
facet normal 0 0 -1
outer loop
vertex 0 -13.33346666666667 0
vertex -10.000100000000003 -10.000100000000003 0
vertex 10.000100000000003 -10.000100000000003 0
endloop
endfacet
facet normal 0 0 -1
outer loop
vertex 0 -13.33346666666667 0
vertex 10.000100000000003 -10.000100000000003 0
vertex 14.999966666666671 -10.000100000000003 0
endloop
endfacet
facet normal 0 0 -1
outer loop
vertex 0 -13.33346666666667 0
vertex 14.999966666666671 -10.000100000000003 0
vertex 19.99983333333334 -19.99983333333334 0
endloop
endfacet
facet normal 0 0 -1
outer loop
vertex 0 -13.33346666666667 0
vertex 19.99983333333334 -19.99983333333334 0
vertex -19.99983333333334 -19.99983333333334 0
endloop
endfacet
facet normal 0 0 -1
outer loop
vertex 0 -13.33346666666667 0
vertex -19.99983333333334 -19.99983333333334 0
vertex -14.999966666666671 -10.000100000000003 0
endloop
endfacet
facet normal 0 0 -1
outer loop
vertex 0 -13.33346666666667 0
vertex -14.999966666666671 -10.000100000000003 0
vertex -10.000100000000003 -10.000100000000003 0
endloop
endfacet
facet normal 0 0 -1
outer loop
vertex -10.000100000000003 -10.000100000000003 -10.000100000000003
vertex -10.000100000000003 10.000100000000003 -10.000100000000003
vertex 10.000100000000003 10.000100000000003 -10.000100000000003
endloop
endfacet
facet normal 0 0 -1
outer loop
vertex -10.000100000000003 -10.000100000000003 -10.000100000000003
vertex 10.000100000000003 10.000100000000003 -10.000100000000003
vertex 10.000100000000003 -10.000100000000003 -10.000100000000003
endloop
endfacet
facet normal -1 0 0
outer loop
vertex -10.000100000000003 10.000100000000003 10.000100000000003
vertex -10.000100000000003 10.000100000000003 0
vertex -10.000100000000003 0 0
endloop
endfacet
facet normal -1 0 0
outer loop
vertex -10.000100000000003 10.000100000000003 10.000100000000003
vertex -10.000100000000003 0 0
vertex -10.000100000000003 0 10.000100000000003
endloop
endfacet
facet normal -1 0 0
outer loop
vertex -10.000100000000003 0 -3.999966666666668
vertex -10.000100000000003 0 0
vertex -10.000100000000003 10.000100000000003 0
endloop
endfacet
facet normal -1 0 0
outer loop
vertex -10.000100000000003 0 -3.999966666666668
vertex -10.000100000000003 10.000100000000003 0
vertex -10.000100000000003 10.000100000000003 -10.000100000000003
endloop
endfacet
facet normal -0.9999999999999999 0 0
outer loop
vertex -10.000100000000003 0 -3.999966666666668
vertex -10.000100000000003 10.000100000000003 -10.000100000000003
vertex -10.000100000000003 -10.000100000000003 -10.000100000000003
endloop
endfacet
facet normal -1 0 0
outer loop
vertex -10.000100000000003 0 -3.999966666666668
vertex -10.000100000000003 -10.000100000000003 -10.000100000000003
vertex -10.000100000000003 -10.000100000000003 0
endloop
endfacet
facet normal -1 0 0
outer loop
vertex -10.000100000000003 0 -3.999966666666668
vertex -10.000100000000003 -10.000100000000003 0
vertex -10.000100000000003 0 0
endloop
endfacet
facet normal 1 0 0
outer loop
vertex 10.000100000000003 0 10.000100000000003
vertex 10.000100000000003 0 0
vertex 10.000100000000003 10.000100000000003 0
endloop
endfacet
facet normal 1 0 0
outer loop
vertex 10.000100000000003 0 10.000100000000003
vertex 10.000100000000003 10.000100000000003 0
vertex 10.000100000000003 10.000100000000003 10.000100000000003
endloop
endfacet
facet normal 1 0 0
outer loop
vertex 10.000100000000003 0 -3.999966666666668
vertex 10.000100000000003 0 0
vertex 10.000100000000003 -10.000100000000003 0
endloop
endfacet
facet normal 1 0 0
outer loop
vertex 10.000100000000003 0 -3.999966666666668
vertex 10.000100000000003 -10.000100000000003 0
vertex 10.000100000000003 -10.000100000000003 -10.000100000000003
endloop
endfacet
facet normal 0.9999999999999999 0 0
outer loop
vertex 10.000100000000003 0 -3.999966666666668
vertex 10.000100000000003 -10.000100000000003 -10.000100000000003
vertex 10.000100000000003 10.000100000000003 -10.000100000000003
endloop
endfacet
facet normal 1 0 0
outer loop
vertex 10.000100000000003 0 -3.999966666666668
vertex 10.000100000000003 10.000100000000003 -10.000100000000003
vertex 10.000100000000003 10.000100000000003 0
endloop
endfacet
facet normal 1 0 0
outer loop
vertex 10.000100000000003 0 -3.999966666666668
vertex 10.000100000000003 10.000100000000003 0
vertex 10.000100000000003 0 0
endloop
endfacet
facet normal 0 -1 0
outer loop
vertex -10.000100000000003 -10.000100000000003 -10.000100000000003
vertex 10.000100000000003 -10.000100000000003 -10.000100000000003
vertex 10.000100000000003 -10.000100000000003 0
endloop
endfacet
facet normal 0 -1 0
outer loop
vertex -10.000100000000003 -10.000100000000003 -10.000100000000003
vertex 10.000100000000003 -10.000100000000003 0
vertex -10.000100000000003 -10.000100000000003 0
endloop
endfacet
facet normal 0 1 0
outer loop
vertex -4.9998666666666685 10.000100000000003 10.000100000000003
vertex -4.9998666666666685 10.000100000000003 0
vertex -10.000100000000003 10.000100000000003 0
endloop
endfacet
facet normal 0 1 0
outer loop
vertex -4.9998666666666685 10.000100000000003 10.000100000000003
vertex -10.000100000000003 10.000100000000003 0
vertex -10.000100000000003 10.000100000000003 10.000100000000003
endloop
endfacet
facet normal 0 1 0
outer loop
vertex 10.000100000000003 10.000100000000003 10.000100000000003
vertex 10.000100000000003 10.000100000000003 0
vertex 4.9998666666666685 10.000100000000003 0
endloop
endfacet
facet normal 0 1 0
outer loop
vertex 10.000100000000003 10.000100000000003 10.000100000000003
vertex 4.9998666666666685 10.000100000000003 0
vertex 4.9998666666666685 10.000100000000003 10.000100000000003
endloop
endfacet
facet normal 0 1 0
outer loop
vertex 0 10.000100000000003 -3.3333666666666675
vertex -4.9998666666666685 10.000100000000003 0
vertex 4.9998666666666685 10.000100000000003 0
endloop
endfacet
facet normal 0 1 0
outer loop
vertex 0 10.000100000000003 -3.3333666666666675
vertex 4.9998666666666685 10.000100000000003 0
vertex 10.000100000000003 10.000100000000003 0
endloop
endfacet
facet normal 0 1 0
outer loop
vertex 0 10.000100000000003 -3.3333666666666675
vertex 10.000100000000003 10.000100000000003 0
vertex 10.000100000000003 10.000100000000003 -10.000100000000003
endloop
endfacet
facet normal 0 1 0
outer loop
vertex 0 10.000100000000003 -3.3333666666666675
vertex 10.000100000000003 10.000100000000003 -10.000100000000003
vertex -10.000100000000003 10.000100000000003 -10.000100000000003
endloop
endfacet
facet normal 0 1 0
outer loop
vertex 0 10.000100000000003 -3.3333666666666675
vertex -10.000100000000003 10.000100000000003 -10.000100000000003
vertex -10.000100000000003 10.000100000000003 0
endloop
endfacet
facet normal 0 1 0
outer loop
vertex 0 10.000100000000003 -3.3333666666666675
vertex -10.000100000000003 10.000100000000003 0
vertex -4.9998666666666685 10.000100000000003 0
endloop
endfacet
facet normal 0 0 1
outer loop
vertex 4.9998666666666685 10.000100000000003 10.000100000000003
vertex 10.000100000000003 0 10.000100000000003
vertex 10.000100000000003 10.000100000000003 10.000100000000003
endloop
endfacet
facet normal 0 0 1
outer loop
vertex -10.000100000000003 10.000100000000003 10.000100000000003
vertex -10.000100000000003 0 10.000100000000003
vertex -4.9998666666666685 10.000100000000003 10.000100000000003
endloop
endfacet
endsolid JSCAD
