solid JSCAD
facet normal -1 0 0
outer loop
vertex -9.999979999999999 4.9999899999999995 0
vertex -9.999979999999999 -4.9999899999999995 0
vertex -9.999979999999999 -4.9999899999999995 0.9999566666666666
endloop
endfacet
facet normal -1 0 0
outer loop
vertex -9.999979999999999 4.9999899999999995 0
vertex -9.999979999999999 -4.9999899999999995 0.9999566666666666
vertex -9.999979999999999 4.9999899999999995 0.9999566666666666
endloop
endfacet
facet normal 0 -0.9999999999999999 0
outer loop
vertex -9.999979999999999 -4.9999899999999995 0
vertex 4.9999899999999995 -4.9999899999999995 0
vertex 4.9999899999999995 -4.9999899999999995 0.9999566666666666
endloop
endfacet
facet normal 0 -0.9999999999999999 0
outer loop
vertex -9.999979999999999 -4.9999899999999995 0
vertex 4.9999899999999995 -4.9999899999999995 0.9999566666666666
vertex -9.999979999999999 -4.9999899999999995 0.9999566666666666
endloop
endfacet
facet normal 0.9999999999999999 0 0
outer loop
vertex 4.9999899999999995 -4.9999899999999995 0
vertex 4.9999899999999995 9.999979999999999 0
vertex 4.9999899999999995 9.999979999999999 0.9999566666666666
endloop
endfacet
facet normal 0.9999999999999999 0 0
outer loop
vertex 4.9999899999999995 -4.9999899999999995 0
vertex 4.9999899999999995 9.999979999999999 0.9999566666666666
vertex 4.9999899999999995 -4.9999899999999995 0.9999566666666666
endloop
endfacet
facet normal 0 1 0
outer loop
vertex 4.9999899999999995 9.999979999999999 0
vertex -4.9999899999999995 9.999979999999999 0
vertex -4.9999899999999995 9.999979999999999 0.9999566666666666
endloop
endfacet
facet normal 0 1 0
outer loop
vertex 4.9999899999999995 9.999979999999999 0
vertex -4.9999899999999995 9.999979999999999 0.9999566666666666
vertex 4.9999899999999995 9.999979999999999 0.9999566666666666
endloop
endfacet
facet normal -1 0 0
outer loop
vertex -4.9999899999999995 9.999979999999999 0
vertex -4.9999899999999995 4.9999899999999995 0
vertex -4.9999899999999995 4.9999899999999995 0.9999566666666666
endloop
endfacet
facet normal -1 0 0
outer loop
vertex -4.9999899999999995 9.999979999999999 0
vertex -4.9999899999999995 4.9999899999999995 0.9999566666666666
vertex -4.9999899999999995 9.999979999999999 0.9999566666666666
endloop
endfacet
facet normal 0 1 0
outer loop
vertex -4.9999899999999995 4.9999899999999995 0
vertex -9.999979999999999 4.9999899999999995 0
vertex -9.999979999999999 4.9999899999999995 0.9999566666666666
endloop
endfacet
facet normal 0 1 0
outer loop
vertex -4.9999899999999995 4.9999899999999995 0
vertex -9.999979999999999 4.9999899999999995 0.9999566666666666
vertex -4.9999899999999995 4.9999899999999995 0.9999566666666666
endloop
endfacet
facet normal 0 0 1
outer loop
vertex -4.9999899999999995 4.9999899999999995 0.9999566666666666
vertex -9.999979999999999 4.9999899999999995 0.9999566666666666
vertex -9.999979999999999 -4.9999899999999995 0.9999566666666666
endloop
endfacet
facet normal 0 0 0.9999999999999999
outer loop
vertex -9.999979999999999 -4.9999899999999995 0.9999566666666666
vertex 4.9999899999999995 -4.9999899999999995 0.9999566666666666
vertex 4.9999899999999995 9.999979999999999 0.9999566666666666
endloop
endfacet
facet normal 0 0 1
outer loop
vertex 4.9999899999999995 9.999979999999999 0.9999566666666666
vertex -4.9999899999999995 9.999979999999999 0.9999566666666666
vertex -4.9999899999999995 4.9999899999999995 0.9999566666666666
endloop
endfacet
facet normal 0 0 1
outer loop
vertex -4.9999899999999995 4.9999899999999995 0.9999566666666666
vertex -9.999979999999999 -4.9999899999999995 0.9999566666666666
vertex 4.9999899999999995 9.999979999999999 0.9999566666666666
endloop
endfacet
facet normal 0 0 -1
outer loop
vertex -9.999979999999999 -4.9999899999999995 0
vertex -9.999979999999999 4.9999899999999995 0
vertex -4.9999899999999995 4.9999899999999995 0
endloop
endfacet
facet normal 0 0 -0.9999999999999999
outer loop
vertex 4.9999899999999995 9.999979999999999 0
vertex 4.9999899999999995 -4.9999899999999995 0
vertex -9.999979999999999 -4.9999899999999995 0
endloop
endfacet
facet normal 0 0 -1
outer loop
vertex -4.9999899999999995 4.9999899999999995 0
vertex -4.9999899999999995 9.999979999999999 0
vertex 4.9999899999999995 9.999979999999999 0
endloop
endfacet
facet normal 0 0 -1
outer loop
vertex 4.9999899999999995 9.999979999999999 0
vertex -9.999979999999999 -4.9999899999999995 0
vertex -4.9999899999999995 4.9999899999999995 0
endloop
endfacet
endsolid JSCAD
