solid JSCAD
facet normal 0 -1 0
outer loop
vertex 10 -10 0
vertex 10 -10 10
vertex -10 -10 10
endloop
endfacet
facet normal 0 -1 0
outer loop
vertex 10 -10 0
vertex -10 -10 10
vertex -10 -10 0
endloop
endfacet
facet normal -1 0 0
outer loop
vertex -10 -10 0
vertex -10 -10 10
vertex -10 0 10
endloop
endfacet
facet normal -1 0 0
outer loop
vertex -10 -10 0
vertex -10 0 10
vertex -10 0 0
endloop
endfacet
facet normal 1 0 0
outer loop
vertex 10 0 0
vertex 10 0 10
vertex 10 -10 10
endloop
endfacet
facet normal 1 0 0
outer loop
vertex 10 0 0
vertex 10 -10 10
vertex 10 -10 0
endloop
endfacet
facet normal 0 0 1
outer loop
vertex 0 0 10
vertex -10 -10 10
vertex 10 -10 10
endloop
endfacet
facet normal 0 0 1
outer loop
vertex 0 0 10
vertex 10 -10 10
vertex 10 0 10
endloop
endfacet
facet normal 0 0 1
outer loop
vertex 0 0 10
vertex 10 0 10
vertex 5 10 10
endloop
endfacet
facet normal 0 0 1
outer loop
vertex 0 0 10
vertex 5 10 10
vertex -5 10 10
endloop
endfacet
facet normal 0 0 1
outer loop
vertex 0 0 10
vertex -5 10 10
vertex -10 0 10
endloop
endfacet
facet normal 0 0 1
outer loop
vertex 0 0 10
vertex -10 0 10
vertex -10 -10 10
endloop
endfacet
facet normal 0 1 0
outer loop
vertex -5 10 10
vertex 5 10 10
vertex 5 10 0
endloop
endfacet
facet normal 0 1 0
outer loop
vertex -5 10 10
vertex 5 10 0
vertex -5 10 0
endloop
endfacet
facet normal -0.894427190999916 0.447213595499958 0
outer loop
vertex -5 10 10
vertex -5 10 0
vertex -10 0 0
endloop
endfacet
facet normal -0.894427190999916 0.447213595499958 0
outer loop
vertex -5 10 10
vertex -10 0 0
vertex -10 0 10
endloop
endfacet
facet normal 0.894427190999916 0.447213595499958 0
outer loop
vertex 5 10 10
vertex 10 0 10
vertex 10 0 0
endloop
endfacet
facet normal 0.894427190999916 0.447213595499958 0
outer loop
vertex 5 10 10
vertex 10 0 0
vertex 5 10 0
endloop
endfacet
facet normal 0 0 -1
outer loop
vertex 0 0 0
vertex 5 10 0
vertex 10 0 0
endloop
endfacet
facet normal 0 0 -1
outer loop
vertex 0 0 0
vertex 10 0 0
vertex 10 -10 0
endloop
endfacet
facet normal 0 0 -1
outer loop
vertex 0 0 0
vertex 10 -10 0
vertex -10 -10 0
endloop
endfacet
facet normal 0 0 -1
outer loop
vertex 0 0 0
vertex -10 -10 0
vertex -10 0 0
endloop
endfacet
facet normal 0 0 -1
outer loop
vertex 0 0 0
vertex -10 0 0
vertex -5 10 0
endloop
endfacet
facet normal 0 0 -1
outer loop
vertex 0 0 0
vertex -5 10 0
vertex 5 10 0
endloop
endfacet
endsolid JSCAD
