solid JSCAD
facet normal -0.09799031643546639 -0.9951873682301626 0
outer loop
vertex -10.97544 -4.90392 0
vertex -10.000060000000001 -4.999960000000001 0
vertex -10.000060000000001 -4.999960000000001 2.0000400000000003
endloop
endfacet
facet normal -0.09799031643546639 -0.9951873682301626 0
outer loop
vertex -10.97544 -4.90392 0
vertex -10.000060000000001 -4.999960000000001 2.0000400000000003
vertex -10.97544 -4.90392 2.0000400000000003
endloop
endfacet
facet normal 0 -1 0
outer loop
vertex -10.000060000000001 -4.999960000000001 0
vertex 0 -4.999960000000001 0
vertex 0 -4.999960000000001 2.0000400000000003
endloop
endfacet
facet normal 0 -1 0
outer loop
vertex -10.000060000000001 -4.999960000000001 0
vertex 0 -4.999960000000001 2.0000400000000003
vertex -10.000060000000001 -4.999960000000001 2.0000400000000003
endloop
endfacet
facet normal 0.0979763885359246 -0.995188739531079 0
outer loop
vertex 0 -4.999960000000001 0
vertex 0.97552 -4.90392 0
vertex 0.97552 -4.90392 2.0000400000000003
endloop
endfacet
facet normal 0.0979763885359246 -0.995188739531079 0
outer loop
vertex 0 -4.999960000000001 0
vertex 0.97552 -4.90392 2.0000400000000003
vertex 0 -4.999960000000001 2.0000400000000003
endloop
endfacet
facet normal 0.2902690539125269 -0.9569450748819008 0
outer loop
vertex 0.97552 -4.90392 0
vertex 1.9133800000000003 -4.619440000000001 0
vertex 1.9133800000000003 -4.619440000000001 2.0000400000000003
endloop
endfacet
facet normal 0.2902690539125269 -0.9569450748819008 0
outer loop
vertex 0.97552 -4.90392 0
vertex 1.9133800000000003 -4.619440000000001 2.0000400000000003
vertex 0.97552 -4.90392 2.0000400000000003
endloop
endfacet
facet normal 0.47144047289935614 -0.8818978855357525 0
outer loop
vertex 1.9133800000000003 -4.619440000000001 0
vertex 2.77788 -4.1573 0
vertex 2.77788 -4.1573 2.0000400000000003
endloop
endfacet
facet normal 0.47144047289935614 -0.8818978855357525 0
outer loop
vertex 1.9133800000000003 -4.619440000000001 0
vertex 2.77788 -4.1573 2.0000400000000003
vertex 1.9133800000000003 -4.619440000000001 2.0000400000000003
endloop
endfacet
facet normal 0.6343494445068779 -0.7730464295589337 0
outer loop
vertex 2.77788 -4.1573 0
vertex 3.5355600000000003 -3.5355600000000003 0
vertex 3.5355600000000003 -3.5355600000000003 2.0000400000000003
endloop
endfacet
facet normal 0.6343494445068779 -0.7730464295589337 0
outer loop
vertex 2.77788 -4.1573 0
vertex 3.5355600000000003 -3.5355600000000003 2.0000400000000003
vertex 2.77788 -4.1573 2.0000400000000003
endloop
endfacet
facet normal 0.7730464295589337 -0.6343494445068779 0
outer loop
vertex 3.5355600000000003 -3.5355600000000003 0
vertex 4.1573 -2.77788 0
vertex 4.1573 -2.77788 2.0000400000000003
endloop
endfacet
facet normal 0.7730464295589337 -0.6343494445068779 0
outer loop
vertex 3.5355600000000003 -3.5355600000000003 0
vertex 4.1573 -2.77788 2.0000400000000003
vertex 3.5355600000000003 -3.5355600000000003 2.0000400000000003
endloop
endfacet
facet normal 0.8818978855357525 -0.47144047289935614 0
outer loop
vertex 4.1573 -2.77788 0
vertex 4.619440000000001 -1.9133800000000003 0
vertex 4.619440000000001 -1.9133800000000003 2.0000400000000003
endloop
endfacet
facet normal 0.8818978855357525 -0.47144047289935614 0
outer loop
vertex 4.1573 -2.77788 0
vertex 4.619440000000001 -1.9133800000000003 2.0000400000000003
vertex 4.1573 -2.77788 2.0000400000000003
endloop
endfacet
facet normal 0.9569450748819008 -0.2902690539125269 0
outer loop
vertex 4.619440000000001 -1.9133800000000003 0
vertex 4.90392 -0.97552 0
vertex 4.90392 -0.97552 2.0000400000000003
endloop
endfacet
facet normal 0.9569450748819008 -0.2902690539125269 0
outer loop
vertex 4.619440000000001 -1.9133800000000003 0
vertex 4.90392 -0.97552 2.0000400000000003
vertex 4.619440000000001 -1.9133800000000003 2.0000400000000003
endloop
endfacet
facet normal 0.995188739531079 -0.0979763885359246 0
outer loop
vertex 4.90392 -0.97552 0
vertex 4.999960000000001 0 0
vertex 4.999960000000001 0 2.0000400000000003
endloop
endfacet
facet normal 0.995188739531079 -0.0979763885359246 0
outer loop
vertex 4.90392 -0.97552 0
vertex 4.999960000000001 0 2.0000400000000003
vertex 4.90392 -0.97552 2.0000400000000003
endloop
endfacet
facet normal 1 0 0
outer loop
vertex 4.999960000000001 0 0
vertex 4.999960000000001 10.000060000000001 0
vertex 4.999960000000001 10.000060000000001 2.0000400000000003
endloop
endfacet
facet normal 1 0 0
outer loop
vertex 4.999960000000001 0 0
vertex 4.999960000000001 10.000060000000001 2.0000400000000003
vertex 4.999960000000001 0 2.0000400000000003
endloop
endfacet
facet normal 0.9951873682301626 0.09799031643546639 0
outer loop
vertex 4.999960000000001 10.000060000000001 0
vertex 4.90392 10.97544 0
vertex 4.90392 10.97544 2.0000400000000003
endloop
endfacet
facet normal 0.9951873682301626 0.09799031643546639 0
outer loop
vertex 4.999960000000001 10.000060000000001 0
vertex 4.90392 10.97544 2.0000400000000003
vertex 4.999960000000001 10.000060000000001 2.0000400000000003
endloop
endfacet
facet normal 0.9569571083126827 0.2902293797151292 0
outer loop
vertex 4.90392 10.97544 0
vertex 4.619440000000001 11.913440000000001 0
vertex 4.619440000000001 11.913440000000001 2.0000400000000003
endloop
endfacet
facet normal 0.9569571083126827 0.2902293797151292 0
outer loop
vertex 4.90392 10.97544 0
vertex 4.619440000000001 11.913440000000001 2.0000400000000003
vertex 4.90392 10.97544 2.0000400000000003
endloop
endfacet
facet normal 0.8818661374809535 0.4714998574383921 0
outer loop
vertex 4.619440000000001 11.913440000000001 0
vertex 4.1573 12.777800000000001 0
vertex 4.1573 12.777800000000001 2.0000400000000003
endloop
endfacet
facet normal 0.8818661374809535 0.4714998574383921 0
outer loop
vertex 4.619440000000001 11.913440000000001 0
vertex 4.1573 12.777800000000001 2.0000400000000003
vertex 4.619440000000001 11.913440000000001 2.0000400000000003
endloop
endfacet
facet normal 0.7730464295589338 0.6343494445068777 0
outer loop
vertex 4.1573 12.777800000000001 0
vertex 3.5355600000000003 13.535480000000002 0
vertex 3.5355600000000003 13.535480000000002 2.0000400000000003
endloop
endfacet
facet normal 0.7730464295589338 0.6343494445068777 0
outer loop
vertex 4.1573 12.777800000000001 0
vertex 3.5355600000000003 13.535480000000002 2.0000400000000003
vertex 4.1573 12.777800000000001 2.0000400000000003
endloop
endfacet
facet normal 0.6344347937985784 0.7729763854205092 0
outer loop
vertex 3.5355600000000003 13.535480000000002 0
vertex 2.77788 14.157360000000002 0
vertex 2.77788 14.157360000000002 2.0000400000000003
endloop
endfacet
facet normal 0.6344347937985784 0.7729763854205092 0
outer loop
vertex 3.5355600000000003 13.535480000000002 0
vertex 2.77788 14.157360000000002 2.0000400000000003
vertex 3.5355600000000003 13.535480000000002 2.0000400000000003
endloop
endfacet
facet normal 0.47132938626681226 0.8819572606659293 0
outer loop
vertex 2.77788 14.157360000000002 0
vertex 1.9133800000000003 14.619360000000002 0
vertex 1.9133800000000003 14.619360000000002 2.0000400000000003
endloop
endfacet
facet normal 0.47132938626681226 0.8819572606659293 0
outer loop
vertex 2.77788 14.157360000000002 0
vertex 1.9133800000000003 14.619360000000002 2.0000400000000003
vertex 2.77788 14.157360000000002 2.0000400000000003
endloop
endfacet
facet normal 0.29039985882116076 0.9569053882159145 0
outer loop
vertex 1.9133800000000003 14.619360000000002 0
vertex 0.97552 14.903980000000002 0
vertex 0.97552 14.903980000000002 2.0000400000000003
endloop
endfacet
facet normal 0.29039985882116076 0.9569053882159145 0
outer loop
vertex 1.9133800000000003 14.619360000000002 0
vertex 0.97552 14.903980000000002 2.0000400000000003
vertex 1.9133800000000003 14.619360000000002 2.0000400000000003
endloop
endfacet
facet normal 0.09797638853592279 0.995188739531079 0
outer loop
vertex 0.97552 14.903980000000002 0
vertex 0 15.000020000000001 0
vertex 0 15.000020000000001 2.0000400000000003
endloop
endfacet
facet normal 0.09797638853592279 0.995188739531079 0
outer loop
vertex 0.97552 14.903980000000002 0
vertex 0 15.000020000000001 2.0000400000000003
vertex 0.97552 14.903980000000002 2.0000400000000003
endloop
endfacet
facet normal -0.09797638853592279 0.995188739531079 0
outer loop
vertex 0 15.000020000000001 0
vertex -0.97552 14.903980000000002 0
vertex -0.97552 14.903980000000002 2.0000400000000003
endloop
endfacet
facet normal -0.09797638853592279 0.995188739531079 0
outer loop
vertex 0 15.000020000000001 0
vertex -0.97552 14.903980000000002 2.0000400000000003
vertex 0 15.000020000000001 2.0000400000000003
endloop
endfacet
facet normal -0.29039985882116076 0.9569053882159145 0
outer loop
vertex -0.97552 14.903980000000002 0
vertex -1.9133800000000003 14.619360000000002 0
vertex -1.9133800000000003 14.619360000000002 2.0000400000000003
endloop
endfacet
facet normal -0.29039985882116076 0.9569053882159145 0
outer loop
vertex -0.97552 14.903980000000002 0
vertex -1.9133800000000003 14.619360000000002 2.0000400000000003
vertex -0.97552 14.903980000000002 2.0000400000000003
endloop
endfacet
facet normal -0.47132938626681226 0.8819572606659293 0
outer loop
vertex -1.9133800000000003 14.619360000000002 0
vertex -2.77788 14.157360000000002 0
vertex -2.77788 14.157360000000002 2.0000400000000003
endloop
endfacet
facet normal -0.47132938626681226 0.8819572606659293 0
outer loop
vertex -1.9133800000000003 14.619360000000002 0
vertex -2.77788 14.157360000000002 2.0000400000000003
vertex -1.9133800000000003 14.619360000000002 2.0000400000000003
endloop
endfacet
facet normal -0.6344347937985784 0.7729763854205092 0
outer loop
vertex -2.77788 14.157360000000002 0
vertex -3.5355600000000003 13.535480000000002 0
vertex -3.5355600000000003 13.535480000000002 2.0000400000000003
endloop
endfacet
facet normal -0.6344347937985784 0.7729763854205092 0
outer loop
vertex -2.77788 14.157360000000002 0
vertex -3.5355600000000003 13.535480000000002 2.0000400000000003
vertex -2.77788 14.157360000000002 2.0000400000000003
endloop
endfacet
facet normal -0.7730464295589338 0.6343494445068777 0
outer loop
vertex -3.5355600000000003 13.535480000000002 0
vertex -4.1573 12.777800000000001 0
vertex -4.1573 12.777800000000001 2.0000400000000003
endloop
endfacet
facet normal -0.7730464295589338 0.6343494445068777 0
outer loop
vertex -3.5355600000000003 13.535480000000002 0
vertex -4.1573 12.777800000000001 2.0000400000000003
vertex -3.5355600000000003 13.535480000000002 2.0000400000000003
endloop
endfacet
facet normal -0.8818661374809535 0.4714998574383921 0
outer loop
vertex -4.1573 12.777800000000001 0
vertex -4.619440000000001 11.913440000000001 0
vertex -4.619440000000001 11.913440000000001 2.0000400000000003
endloop
endfacet
facet normal -0.8818661374809535 0.4714998574383921 0
outer loop
vertex -4.1573 12.777800000000001 0
vertex -4.619440000000001 11.913440000000001 2.0000400000000003
vertex -4.1573 12.777800000000001 2.0000400000000003
endloop
endfacet
facet normal -0.9569571083126827 0.2902293797151292 0
outer loop
vertex -4.619440000000001 11.913440000000001 0
vertex -4.90392 10.97544 0
vertex -4.90392 10.97544 2.0000400000000003
endloop
endfacet
facet normal -0.9569571083126827 0.2902293797151292 0
outer loop
vertex -4.619440000000001 11.913440000000001 0
vertex -4.90392 10.97544 2.0000400000000003
vertex -4.619440000000001 11.913440000000001 2.0000400000000003
endloop
endfacet
facet normal -0.9951873682301626 0.09799031643546639 0
outer loop
vertex -4.90392 10.97544 0
vertex -4.999960000000001 10.000060000000001 0
vertex -4.999960000000001 10.000060000000001 2.0000400000000003
endloop
endfacet
facet normal -0.9951873682301626 0.09799031643546639 0
outer loop
vertex -4.90392 10.97544 0
vertex -4.999960000000001 10.000060000000001 2.0000400000000003
vertex -4.90392 10.97544 2.0000400000000003
endloop
endfacet
facet normal -0.9999999999999999 0 0
outer loop
vertex -4.999960000000001 10.000060000000001 0
vertex -4.999960000000001 4.999960000000001 0
vertex -4.999960000000001 4.999960000000001 2.0000400000000003
endloop
endfacet
facet normal -0.9999999999999999 0 0
outer loop
vertex -4.999960000000001 10.000060000000001 0
vertex -4.999960000000001 4.999960000000001 2.0000400000000003
vertex -4.999960000000001 10.000060000000001 2.0000400000000003
endloop
endfacet
facet normal 0 0.9999999999999999 0
outer loop
vertex -4.999960000000001 4.999960000000001 0
vertex -10.000060000000001 4.999960000000001 0
vertex -10.000060000000001 4.999960000000001 2.0000400000000003
endloop
endfacet
facet normal 0 0.9999999999999999 0
outer loop
vertex -4.999960000000001 4.999960000000001 0
vertex -10.000060000000001 4.999960000000001 2.0000400000000003
vertex -4.999960000000001 4.999960000000001 2.0000400000000003
endloop
endfacet
facet normal -0.09799031643546639 0.9951873682301626 0
outer loop
vertex -10.000060000000001 4.999960000000001 0
vertex -10.97544 4.90392 0
vertex -10.97544 4.90392 2.0000400000000003
endloop
endfacet
facet normal -0.09799031643546639 0.9951873682301626 0
outer loop
vertex -10.000060000000001 4.999960000000001 0
vertex -10.97544 4.90392 2.0000400000000003
vertex -10.000060000000001 4.999960000000001 2.0000400000000003
endloop
endfacet
facet normal -0.2902293797151292 0.9569571083126827 0
outer loop
vertex -10.97544 4.90392 0
vertex -11.913440000000001 4.619440000000001 0
vertex -11.913440000000001 4.619440000000001 2.0000400000000003
endloop
endfacet
facet normal -0.2902293797151292 0.9569571083126827 0
outer loop
vertex -10.97544 4.90392 0
vertex -11.913440000000001 4.619440000000001 2.0000400000000003
vertex -10.97544 4.90392 2.0000400000000003
endloop
endfacet
facet normal -0.4714998574383921 0.8818661374809535 0
outer loop
vertex -11.913440000000001 4.619440000000001 0
vertex -12.777800000000001 4.1573 0
vertex -12.777800000000001 4.1573 2.0000400000000003
endloop
endfacet
facet normal -0.4714998574383921 0.8818661374809535 0
outer loop
vertex -11.913440000000001 4.619440000000001 0
vertex -12.777800000000001 4.1573 2.0000400000000003
vertex -11.913440000000001 4.619440000000001 2.0000400000000003
endloop
endfacet
facet normal -0.6343494445068777 0.7730464295589338 0
outer loop
vertex -12.777800000000001 4.1573 0
vertex -13.535480000000002 3.5355600000000003 0
vertex -13.535480000000002 3.5355600000000003 2.0000400000000003
endloop
endfacet
facet normal -0.6343494445068777 0.7730464295589338 0
outer loop
vertex -12.777800000000001 4.1573 0
vertex -13.535480000000002 3.5355600000000003 2.0000400000000003
vertex -12.777800000000001 4.1573 2.0000400000000003
endloop
endfacet
facet normal -0.7729763854205092 0.6344347937985784 0
outer loop
vertex -13.535480000000002 3.5355600000000003 0
vertex -14.157360000000002 2.77788 0
vertex -14.157360000000002 2.77788 2.0000400000000003
endloop
endfacet
facet normal -0.7729763854205092 0.6344347937985784 0
outer loop
vertex -13.535480000000002 3.5355600000000003 0
vertex -14.157360000000002 2.77788 2.0000400000000003
vertex -13.535480000000002 3.5355600000000003 2.0000400000000003
endloop
endfacet
facet normal -0.8819572606659293 0.47132938626681226 0
outer loop
vertex -14.157360000000002 2.77788 0
vertex -14.619360000000002 1.9133800000000003 0
vertex -14.619360000000002 1.9133800000000003 2.0000400000000003
endloop
endfacet
facet normal -0.8819572606659293 0.47132938626681226 0
outer loop
vertex -14.157360000000002 2.77788 0
vertex -14.619360000000002 1.9133800000000003 2.0000400000000003
vertex -14.157360000000002 2.77788 2.0000400000000003
endloop
endfacet
facet normal -0.9569053882159145 0.29039985882116076 0
outer loop
vertex -14.619360000000002 1.9133800000000003 0
vertex -14.903980000000002 0.97552 0
vertex -14.903980000000002 0.97552 2.0000400000000003
endloop
endfacet
facet normal -0.9569053882159145 0.29039985882116076 0
outer loop
vertex -14.619360000000002 1.9133800000000003 0
vertex -14.903980000000002 0.97552 2.0000400000000003
vertex -14.619360000000002 1.9133800000000003 2.0000400000000003
endloop
endfacet
facet normal -0.995188739531079 0.09797638853592279 0
outer loop
vertex -14.903980000000002 0.97552 0
vertex -15.000020000000001 0 0
vertex -15.000020000000001 0 2.0000400000000003
endloop
endfacet
facet normal -0.995188739531079 0.09797638853592279 0
outer loop
vertex -14.903980000000002 0.97552 0
vertex -15.000020000000001 0 2.0000400000000003
vertex -14.903980000000002 0.97552 2.0000400000000003
endloop
endfacet
facet normal -0.995188739531079 -0.09797638853592279 0
outer loop
vertex -15.000020000000001 0 0
vertex -14.903980000000002 -0.97552 0
vertex -14.903980000000002 -0.97552 2.0000400000000003
endloop
endfacet
facet normal -0.995188739531079 -0.09797638853592279 0
outer loop
vertex -15.000020000000001 0 0
vertex -14.903980000000002 -0.97552 2.0000400000000003
vertex -15.000020000000001 0 2.0000400000000003
endloop
endfacet
facet normal -0.9569053882159145 -0.29039985882116076 0
outer loop
vertex -14.903980000000002 -0.97552 0
vertex -14.619360000000002 -1.9133800000000003 0
vertex -14.619360000000002 -1.9133800000000003 2.0000400000000003
endloop
endfacet
facet normal -0.9569053882159145 -0.29039985882116076 0
outer loop
vertex -14.903980000000002 -0.97552 0
vertex -14.619360000000002 -1.9133800000000003 2.0000400000000003
vertex -14.903980000000002 -0.97552 2.0000400000000003
endloop
endfacet
facet normal -0.8819572606659293 -0.47132938626681226 0
outer loop
vertex -14.619360000000002 -1.9133800000000003 0
vertex -14.157360000000002 -2.77788 0
vertex -14.157360000000002 -2.77788 2.0000400000000003
endloop
endfacet
facet normal -0.8819572606659293 -0.47132938626681226 0
outer loop
vertex -14.619360000000002 -1.9133800000000003 0
vertex -14.157360000000002 -2.77788 2.0000400000000003
vertex -14.619360000000002 -1.9133800000000003 2.0000400000000003
endloop
endfacet
facet normal -0.7729763854205092 -0.6344347937985784 0
outer loop
vertex -14.157360000000002 -2.77788 0
vertex -13.535480000000002 -3.5355600000000003 0
vertex -13.535480000000002 -3.5355600000000003 2.0000400000000003
endloop
endfacet
facet normal -0.7729763854205092 -0.6344347937985784 0
outer loop
vertex -14.157360000000002 -2.77788 0
vertex -13.535480000000002 -3.5355600000000003 2.0000400000000003
vertex -14.157360000000002 -2.77788 2.0000400000000003
endloop
endfacet
facet normal -0.6343494445068777 -0.7730464295589338 0
outer loop
vertex -13.535480000000002 -3.5355600000000003 0
vertex -12.777800000000001 -4.1573 0
vertex -12.777800000000001 -4.1573 2.0000400000000003
endloop
endfacet
facet normal -0.6343494445068777 -0.7730464295589338 0
outer loop
vertex -13.535480000000002 -3.5355600000000003 0
vertex -12.777800000000001 -4.1573 2.0000400000000003
vertex -13.535480000000002 -3.5355600000000003 2.0000400000000003
endloop
endfacet
facet normal -0.4714998574383921 -0.8818661374809535 0
outer loop
vertex -12.777800000000001 -4.1573 0
vertex -11.913440000000001 -4.619440000000001 0
vertex -11.913440000000001 -4.619440000000001 2.0000400000000003
endloop
endfacet
facet normal -0.4714998574383921 -0.8818661374809535 0
outer loop
vertex -12.777800000000001 -4.1573 0
vertex -11.913440000000001 -4.619440000000001 2.0000400000000003
vertex -12.777800000000001 -4.1573 2.0000400000000003
endloop
endfacet
facet normal -0.2902293797151292 -0.9569571083126827 0
outer loop
vertex -11.913440000000001 -4.619440000000001 0
vertex -10.97544 -4.90392 0
vertex -10.97544 -4.90392 2.0000400000000003
endloop
endfacet
facet normal -0.2902293797151292 -0.9569571083126827 0
outer loop
vertex -11.913440000000001 -4.619440000000001 0
vertex -10.97544 -4.90392 2.0000400000000003
vertex -11.913440000000001 -4.619440000000001 2.0000400000000003
endloop
endfacet
facet normal 0 0 1
outer loop
vertex -11.913440000000001 -4.619440000000001 2.0000400000000003
vertex -10.97544 -4.90392 2.0000400000000003
vertex -10.000060000000001 -4.999960000000001 2.0000400000000003
endloop
endfacet
facet normal 0 0 1
outer loop
vertex -10.000060000000001 -4.999960000000001 2.0000400000000003
vertex 0 -4.999960000000001 2.0000400000000003
vertex 0.97552 -4.90392 2.0000400000000003
endloop
endfacet
facet normal 0 0 1
outer loop
vertex 0.97552 -4.90392 2.0000400000000003
vertex 1.9133800000000003 -4.619440000000001 2.0000400000000003
vertex 2.77788 -4.1573 2.0000400000000003
endloop
endfacet
facet normal 0 0 1
outer loop
vertex 2.77788 -4.1573 2.0000400000000003
vertex 3.5355600000000003 -3.5355600000000003 2.0000400000000003
vertex 4.1573 -2.77788 2.0000400000000003
endloop
endfacet
facet normal 0 0 1
outer loop
vertex 4.1573 -2.77788 2.0000400000000003
vertex 4.619440000000001 -1.9133800000000003 2.0000400000000003
vertex 4.90392 -0.97552 2.0000400000000003
endloop
endfacet
facet normal 0 0 0.9999999999999999
outer loop
vertex 4.90392 -0.97552 2.0000400000000003
vertex 4.999960000000001 0 2.0000400000000003
vertex 4.999960000000001 10.000060000000001 2.0000400000000003
endloop
endfacet
facet normal 0 0 1
outer loop
vertex 4.999960000000001 10.000060000000001 2.0000400000000003
vertex 4.90392 10.97544 2.0000400000000003
vertex 4.619440000000001 11.913440000000001 2.0000400000000003
endloop
endfacet
facet normal 0 0 0.9999999999999999
outer loop
vertex 4.619440000000001 11.913440000000001 2.0000400000000003
vertex 4.1573 12.777800000000001 2.0000400000000003
vertex 3.5355600000000003 13.535480000000002 2.0000400000000003
endloop
endfacet
facet normal 0 0 0.9999999999999999
outer loop
vertex 3.5355600000000003 13.535480000000002 2.0000400000000003
vertex 2.77788 14.157360000000002 2.0000400000000003
vertex 1.9133800000000003 14.619360000000002 2.0000400000000003
endloop
endfacet
facet normal 0 0 1
outer loop
vertex 1.9133800000000003 14.619360000000002 2.0000400000000003
vertex 0.97552 14.903980000000002 2.0000400000000003
vertex 0 15.000020000000001 2.0000400000000003
endloop
endfacet
facet normal 0 0 1
outer loop
vertex 0 15.000020000000001 2.0000400000000003
vertex -0.97552 14.903980000000002 2.0000400000000003
vertex -1.9133800000000003 14.619360000000002 2.0000400000000003
endloop
endfacet
facet normal 0 0 1
outer loop
vertex -1.9133800000000003 14.619360000000002 2.0000400000000003
vertex -2.77788 14.157360000000002 2.0000400000000003
vertex -3.5355600000000003 13.535480000000002 2.0000400000000003
endloop
endfacet
facet normal 0 0 0.9999999999999999
outer loop
vertex -3.5355600000000003 13.535480000000002 2.0000400000000003
vertex -4.1573 12.777800000000001 2.0000400000000003
vertex -4.619440000000001 11.913440000000001 2.0000400000000003
endloop
endfacet
facet normal 0 0 1
outer loop
vertex -4.619440000000001 11.913440000000001 2.0000400000000003
vertex -4.90392 10.97544 2.0000400000000003
vertex -4.999960000000001 10.000060000000001 2.0000400000000003
endloop
endfacet
facet normal 0 0 1
outer loop
vertex -4.999960000000001 4.999960000000001 2.0000400000000003
vertex -10.000060000000001 4.999960000000001 2.0000400000000003
vertex -10.97544 4.90392 2.0000400000000003
endloop
endfacet
facet normal 0 0 1
outer loop
vertex -10.97544 4.90392 2.0000400000000003
vertex -11.913440000000001 4.619440000000001 2.0000400000000003
vertex -12.777800000000001 4.1573 2.0000400000000003
endloop
endfacet
facet normal 0 0 1
outer loop
vertex -12.777800000000001 4.1573 2.0000400000000003
vertex -13.535480000000002 3.5355600000000003 2.0000400000000003
vertex -14.157360000000002 2.77788 2.0000400000000003
endloop
endfacet
facet normal 0 0 1
outer loop
vertex -14.157360000000002 2.77788 2.0000400000000003
vertex -14.619360000000002 1.9133800000000003 2.0000400000000003
vertex -14.903980000000002 0.97552 2.0000400000000003
endloop
endfacet
facet normal 0 0 1
outer loop
vertex -14.903980000000002 0.97552 2.0000400000000003
vertex -15.000020000000001 0 2.0000400000000003
vertex -14.903980000000002 -0.97552 2.0000400000000003
endloop
endfacet
facet normal 0 0 1
outer loop
vertex -14.903980000000002 -0.97552 2.0000400000000003
vertex -14.619360000000002 -1.9133800000000003 2.0000400000000003
vertex -14.157360000000002 -2.77788 2.0000400000000003
endloop
endfacet
facet normal 0 0 1
outer loop
vertex -14.157360000000002 -2.77788 2.0000400000000003
vertex -13.535480000000002 -3.5355600000000003 2.0000400000000003
vertex -12.777800000000001 -4.1573 2.0000400000000003
endloop
endfacet
facet normal 0 0 1
outer loop
vertex -12.777800000000001 -4.1573 2.0000400000000003
vertex -11.913440000000001 -4.619440000000001 2.0000400000000003
vertex -10.000060000000001 -4.999960000000001 2.0000400000000003
endloop
endfacet
facet normal 0 0 1
outer loop
vertex -10.000060000000001 -4.999960000000001 2.0000400000000003
vertex 0.97552 -4.90392 2.0000400000000003
vertex 2.77788 -4.1573 2.0000400000000003
endloop
endfacet
facet normal 0 0 0.9999999999999999
outer loop
vertex 2.77788 -4.1573 2.0000400000000003
vertex 4.1573 -2.77788 2.0000400000000003
vertex 4.90392 -0.97552 2.0000400000000003
endloop
endfacet
facet normal 0 0 1
outer loop
vertex 4.90392 -0.97552 2.0000400000000003
vertex 4.999960000000001 10.000060000000001 2.0000400000000003
vertex 4.619440000000001 11.913440000000001 2.0000400000000003
endloop
endfacet
facet normal 0 0 1
outer loop
vertex 4.619440000000001 11.913440000000001 2.0000400000000003
vertex 3.5355600000000003 13.535480000000002 2.0000400000000003
vertex 1.9133800000000003 14.619360000000002 2.0000400000000003
endloop
endfacet
facet normal 0 0 0.9999999999999999
outer loop
vertex 1.9133800000000003 14.619360000000002 2.0000400000000003
vertex 0 15.000020000000001 2.0000400000000003
vertex -1.9133800000000003 14.619360000000002 2.0000400000000003
endloop
endfacet
facet normal 0 0 1
outer loop
vertex -1.9133800000000003 14.619360000000002 2.0000400000000003
vertex -3.5355600000000003 13.535480000000002 2.0000400000000003
vertex -4.619440000000001 11.913440000000001 2.0000400000000003
endloop
endfacet
facet normal 0 0 1
outer loop
vertex -4.619440000000001 11.913440000000001 2.0000400000000003
vertex -4.999960000000001 10.000060000000001 2.0000400000000003
vertex -4.999960000000001 4.999960000000001 2.0000400000000003
endloop
endfacet
facet normal 0 0 1
outer loop
vertex -4.999960000000001 4.999960000000001 2.0000400000000003
vertex -10.97544 4.90392 2.0000400000000003
vertex -12.777800000000001 4.1573 2.0000400000000003
endloop
endfacet
facet normal 0 0 1
outer loop
vertex -12.777800000000001 4.1573 2.0000400000000003
vertex -14.157360000000002 2.77788 2.0000400000000003
vertex -14.903980000000002 0.97552 2.0000400000000003
endloop
endfacet
facet normal 0 0 1
outer loop
vertex -14.903980000000002 0.97552 2.0000400000000003
vertex -14.903980000000002 -0.97552 2.0000400000000003
vertex -14.157360000000002 -2.77788 2.0000400000000003
endloop
endfacet
facet normal 0 0 1
outer loop
vertex -14.157360000000002 -2.77788 2.0000400000000003
vertex -12.777800000000001 -4.1573 2.0000400000000003
vertex -10.000060000000001 -4.999960000000001 2.0000400000000003
endloop
endfacet
facet normal 0 0 1
outer loop
vertex -10.000060000000001 -4.999960000000001 2.0000400000000003
vertex 2.77788 -4.1573 2.0000400000000003
vertex 4.90392 -0.97552 2.0000400000000003
endloop
endfacet
facet normal 0 0 1
outer loop
vertex 4.90392 -0.97552 2.0000400000000003
vertex 4.619440000000001 11.913440000000001 2.0000400000000003
vertex 1.9133800000000003 14.619360000000002 2.0000400000000003
endloop
endfacet
facet normal 0 0 1
outer loop
vertex 1.9133800000000003 14.619360000000002 2.0000400000000003
vertex -1.9133800000000003 14.619360000000002 2.0000400000000003
vertex -4.619440000000001 11.913440000000001 2.0000400000000003
endloop
endfacet
facet normal 0 0 1
outer loop
vertex -4.999960000000001 4.999960000000001 2.0000400000000003
vertex -12.777800000000001 4.1573 2.0000400000000003
vertex -14.903980000000002 0.97552 2.0000400000000003
endloop
endfacet
facet normal 0 0 1
outer loop
vertex -14.903980000000002 0.97552 2.0000400000000003
vertex -14.157360000000002 -2.77788 2.0000400000000003
vertex -10.000060000000001 -4.999960000000001 2.0000400000000003
endloop
endfacet
facet normal 0 0 0.9999999999999999
outer loop
vertex -10.000060000000001 -4.999960000000001 2.0000400000000003
vertex 4.90392 -0.97552 2.0000400000000003
vertex 1.9133800000000003 14.619360000000002 2.0000400000000003
endloop
endfacet
facet normal 0 0 0.9999999999999999
outer loop
vertex 1.9133800000000003 14.619360000000002 2.0000400000000003
vertex -4.619440000000001 11.913440000000001 2.0000400000000003
vertex -4.999960000000001 4.999960000000001 2.0000400000000003
endloop
endfacet
facet normal 0 0 1
outer loop
vertex -4.999960000000001 4.999960000000001 2.0000400000000003
vertex -14.903980000000002 0.97552 2.0000400000000003
vertex -10.000060000000001 -4.999960000000001 2.0000400000000003
endloop
endfacet
facet normal 0 0 1
outer loop
vertex -10.000060000000001 -4.999960000000001 2.0000400000000003
vertex 1.9133800000000003 14.619360000000002 2.0000400000000003
vertex -4.999960000000001 4.999960000000001 2.0000400000000003
endloop
endfacet
facet normal 0 0 -1
outer loop
vertex -10.000060000000001 -4.999960000000001 0
vertex -10.97544 -4.90392 0
vertex -11.913440000000001 -4.619440000000001 0
endloop
endfacet
facet normal 0 0 -0.9999999999999999
outer loop
vertex 0.97552 -4.90392 0
vertex 0 -4.999960000000001 0
vertex -10.000060000000001 -4.999960000000001 0
endloop
endfacet
facet normal 0 0 -1
outer loop
vertex 2.77788 -4.1573 0
vertex 1.9133800000000003 -4.619440000000001 0
vertex 0.97552 -4.90392 0
endloop
endfacet
facet normal 0 0 -1
outer loop
vertex 4.1573 -2.77788 0
vertex 3.5355600000000003 -3.5355600000000003 0
vertex 2.77788 -4.1573 0
endloop
endfacet
facet normal 0 0 -1
outer loop
vertex 4.90392 -0.97552 0
vertex 4.619440000000001 -1.9133800000000003 0
vertex 4.1573 -2.77788 0
endloop
endfacet
facet normal 0 0 -1
outer loop
vertex 4.999960000000001 10.000060000000001 0
vertex 4.999960000000001 0 0
vertex 4.90392 -0.97552 0
endloop
endfacet
facet normal 0 0 -1
outer loop
vertex 4.619440000000001 11.913440000000001 0
vertex 4.90392 10.97544 0
vertex 4.999960000000001 10.000060000000001 0
endloop
endfacet
facet normal 0 0 -0.9999999999999999
outer loop
vertex 3.5355600000000003 13.535480000000002 0
vertex 4.1573 12.777800000000001 0
vertex 4.619440000000001 11.913440000000001 0
endloop
endfacet
facet normal 0 0 -1
outer loop
vertex 1.9133800000000003 14.619360000000002 0
vertex 2.77788 14.157360000000002 0
vertex 3.5355600000000003 13.535480000000002 0
endloop
endfacet
facet normal 0 0 -1
outer loop
vertex 0 15.000020000000001 0
vertex 0.97552 14.903980000000002 0
vertex 1.9133800000000003 14.619360000000002 0
endloop
endfacet
facet normal 0 0 -1
outer loop
vertex -1.9133800000000003 14.619360000000002 0
vertex -0.97552 14.903980000000002 0
vertex 0 15.000020000000001 0
endloop
endfacet
facet normal 0 0 -0.9999999999999999
outer loop
vertex -3.5355600000000003 13.535480000000002 0
vertex -2.77788 14.157360000000002 0
vertex -1.9133800000000003 14.619360000000002 0
endloop
endfacet
facet normal 0 0 -0.9999999999999999
outer loop
vertex -4.619440000000001 11.913440000000001 0
vertex -4.1573 12.777800000000001 0
vertex -3.5355600000000003 13.535480000000002 0
endloop
endfacet
facet normal 0 0 -1
outer loop
vertex -4.999960000000001 10.000060000000001 0
vertex -4.90392 10.97544 0
vertex -4.619440000000001 11.913440000000001 0
endloop
endfacet
facet normal 0 0 -1
outer loop
vertex -10.97544 4.90392 0
vertex -10.000060000000001 4.999960000000001 0
vertex -4.999960000000001 4.999960000000001 0
endloop
endfacet
facet normal 0 0 -1
outer loop
vertex -12.777800000000001 4.1573 0
vertex -11.913440000000001 4.619440000000001 0
vertex -10.97544 4.90392 0
endloop
endfacet
facet normal 0 0 -1
outer loop
vertex -14.157360000000002 2.77788 0
vertex -13.535480000000002 3.5355600000000003 0
vertex -12.777800000000001 4.1573 0
endloop
endfacet
facet normal 0 0 -1
outer loop
vertex -14.903980000000002 0.97552 0
vertex -14.619360000000002 1.9133800000000003 0
vertex -14.157360000000002 2.77788 0
endloop
endfacet
facet normal 0 0 -1
outer loop
vertex -14.903980000000002 -0.97552 0
vertex -15.000020000000001 0 0
vertex -14.903980000000002 0.97552 0
endloop
endfacet
facet normal 0 0 -1
outer loop
vertex -14.157360000000002 -2.77788 0
vertex -14.619360000000002 -1.9133800000000003 0
vertex -14.903980000000002 -0.97552 0
endloop
endfacet
facet normal 0 0 -1
outer loop
vertex -12.777800000000001 -4.1573 0
vertex -13.535480000000002 -3.5355600000000003 0
vertex -14.157360000000002 -2.77788 0
endloop
endfacet
facet normal 0 0 -1
outer loop
vertex -10.000060000000001 -4.999960000000001 0
vertex -11.913440000000001 -4.619440000000001 0
vertex -12.777800000000001 -4.1573 0
endloop
endfacet
facet normal 0 0 -1
outer loop
vertex 2.77788 -4.1573 0
vertex 0.97552 -4.90392 0
vertex -10.000060000000001 -4.999960000000001 0
endloop
endfacet
facet normal 0 0 -1
outer loop
vertex 4.90392 -0.97552 0
vertex 4.1573 -2.77788 0
vertex 2.77788 -4.1573 0
endloop
endfacet
facet normal 0 0 -1
outer loop
vertex 4.619440000000001 11.913440000000001 0
vertex 4.999960000000001 10.000060000000001 0
vertex 4.90392 -0.97552 0
endloop
endfacet
facet normal 0 0 -1
outer loop
vertex 1.9133800000000003 14.619360000000002 0
vertex 3.5355600000000003 13.535480000000002 0
vertex 4.619440000000001 11.913440000000001 0
endloop
endfacet
facet normal 0 0 -0.9999999999999999
outer loop
vertex -1.9133800000000003 14.619360000000002 0
vertex 0 15.000020000000001 0
vertex 1.9133800000000003 14.619360000000002 0
endloop
endfacet
facet normal 0 0 -1
outer loop
vertex -4.619440000000001 11.913440000000001 0
vertex -3.5355600000000003 13.535480000000002 0
vertex -1.9133800000000003 14.619360000000002 0
endloop
endfacet
facet normal 0 0 -1
outer loop
vertex -4.999960000000001 4.999960000000001 0
vertex -4.999960000000001 10.000060000000001 0
vertex -4.619440000000001 11.913440000000001 0
endloop
endfacet
facet normal 0 0 -1
outer loop
vertex -12.777800000000001 4.1573 0
vertex -10.97544 4.90392 0
vertex -4.999960000000001 4.999960000000001 0
endloop
endfacet
facet normal 0 0 -1
outer loop
vertex -14.903980000000002 0.97552 0
vertex -14.157360000000002 2.77788 0
vertex -12.777800000000001 4.1573 0
endloop
endfacet
facet normal 0 0 -1
outer loop
vertex -14.157360000000002 -2.77788 0
vertex -14.903980000000002 -0.97552 0
vertex -14.903980000000002 0.97552 0
endloop
endfacet
facet normal 0 0 -1
outer loop
vertex -10.000060000000001 -4.999960000000001 0
vertex -12.777800000000001 -4.1573 0
vertex -14.157360000000002 -2.77788 0
endloop
endfacet
facet normal 0 0 -0.9999999999999999
outer loop
vertex 4.90392 -0.97552 0
vertex 2.77788 -4.1573 0
vertex -10.000060000000001 -4.999960000000001 0
endloop
endfacet
facet normal 0 0 -1
outer loop
vertex 1.9133800000000003 14.619360000000002 0
vertex 4.619440000000001 11.913440000000001 0
vertex 4.90392 -0.97552 0
endloop
endfacet
facet normal 0 0 -0.9999999999999999
outer loop
vertex -4.619440000000001 11.913440000000001 0
vertex -1.9133800000000003 14.619360000000002 0
vertex 1.9133800000000003 14.619360000000002 0
endloop
endfacet
facet normal 0 0 -1
outer loop
vertex -14.903980000000002 0.97552 0
vertex -12.777800000000001 4.1573 0
vertex -4.999960000000001 4.999960000000001 0
endloop
endfacet
facet normal 0 0 -1
outer loop
vertex -10.000060000000001 -4.999960000000001 0
vertex -14.157360000000002 -2.77788 0
vertex -14.903980000000002 0.97552 0
endloop
endfacet
facet normal 0 0 -0.9999999999999999
outer loop
vertex 1.9133800000000003 14.619360000000002 0
vertex 4.90392 -0.97552 0
vertex -10.000060000000001 -4.999960000000001 0
endloop
endfacet
facet normal 0 0 -0.9999999999999999
outer loop
vertex -4.999960000000001 4.999960000000001 0
vertex -4.619440000000001 11.913440000000001 0
vertex 1.9133800000000003 14.619360000000002 0
endloop
endfacet
facet normal 0 0 -1
outer loop
vertex -10.000060000000001 -4.999960000000001 0
vertex -14.903980000000002 0.97552 0
vertex -4.999960000000001 4.999960000000001 0
endloop
endfacet
facet normal 0 0 -1
outer loop
vertex -4.999960000000001 4.999960000000001 0
vertex 1.9133800000000003 14.619360000000002 0
vertex -10.000060000000001 -4.999960000000001 0
endloop
endfacet
endsolid JSCAD
