solid JSCAD
facet normal 0.6479257478726869 -0.7617035021867887 0
outer loop
vertex 6.472054991879363 -4.70222088151774 0
vertex 12.000000323991232 0 0
vertex 12.000000323991232 0 4.999917579062474
endloop
endfacet
facet normal 0.6479257478726869 -0.7617035021867887 0
outer loop
vertex 6.472054991879363 -4.70222088151774 0
vertex 12.000000323991232 0 4.999917579062474
vertex 6.472054991879363 -4.70222088151774 4.999917579062474
endloop
endfacet
facet normal 0.6479257478726869 0.7617035021867887 0
outer loop
vertex 12.000000323991232 0 0
vertex 6.472054991879363 4.70222088151774 0
vertex 6.472054991879363 4.70222088151774 4.999917579062474
endloop
endfacet
facet normal 0.6479257478726869 0.7617035021867887 0
outer loop
vertex 12.000000323991232 0 0
vertex 6.472054991879363 4.70222088151774 4.999917579062474
vertex 12.000000323991232 0 4.999917579062474
endloop
endfacet
facet normal 0.9246455840790802 0.3808287592121382 0
outer loop
vertex 6.472054991879363 4.70222088151774 0
vertex 3.7082474376911736 11.412697410421282 0
vertex 3.7082474376911736 11.412697410421282 4.999917579062474
endloop
endfacet
facet normal 0.9246455840790802 0.3808287592121382 0
outer loop
vertex 6.472054991879363 4.70222088151774 0
vertex 3.7082474376911736 11.412697410421282 4.999917579062474
vertex 6.472054991879363 4.70222088151774 4.999917579062474
endloop
endfacet
facet normal -0.5241888182290343 0.8516020683650599 0
outer loop
vertex 3.7082474376911736 11.412697410421282 0
vertex -2.4720548838822856 7.608519977570103 0
vertex -2.4720548838822856 7.608519977570103 4.999917579062474
endloop
endfacet
facet normal -0.5241888182290343 0.8516020683650599 0
outer loop
vertex 3.7082474376911736 11.412697410421282 0
vertex -2.4720548838822856 7.608519977570103 4.999917579062474
vertex 3.7082474376911736 11.412697410421282 4.999917579062474
endloop
endfacet
facet normal -0.07648772642060368 0.9970705229355679 0
outer loop
vertex -2.4720548838822856 7.608519977570103 0
vertex -9.70824759968679 7.053413878210483 0
vertex -9.70824759968679 7.053413878210483 4.999917579062474
endloop
endfacet
facet normal -0.07648772642060368 0.9970705229355679 0
outer loop
vertex -2.4720548838822856 7.608519977570103 0
vertex -9.70824759968679 7.053413878210483 4.999917579062474
vertex -2.4720548838822856 7.608519977570103 4.999917579062474
endloop
endfacet
facet normal -0.9719028054205604 -0.2353825329450856 0
outer loop
vertex -9.70824759968679 7.053413878210483 0
vertex -8.000000215994156 0 0
vertex -8.000000215994156 0 4.999917579062474
endloop
endfacet
facet normal -0.9719028054205604 -0.2353825329450856 0
outer loop
vertex -9.70824759968679 7.053413878210483 0
vertex -8.000000215994156 0 4.999917579062474
vertex -9.70824759968679 7.053413878210483 4.999917579062474
endloop
endfacet
facet normal -0.9719028054205604 0.2353825329450856 0
outer loop
vertex -8.000000215994156 0 0
vertex -9.70824759968679 -7.053413878210483 0
vertex -9.70824759968679 -7.053413878210483 4.999917579062474
endloop
endfacet
facet normal -0.9719028054205604 0.2353825329450856 0
outer loop
vertex -8.000000215994156 0 0
vertex -9.70824759968679 -7.053413878210483 4.999917579062474
vertex -8.000000215994156 0 4.999917579062474
endloop
endfacet
facet normal -0.07648772642060368 -0.9970705229355679 0
outer loop
vertex -9.70824759968679 -7.053413878210483 0
vertex -2.4720548838822856 -7.608519977570103 0
vertex -2.4720548838822856 -7.608519977570103 4.999917579062474
endloop
endfacet
facet normal -0.07648772642060368 -0.9970705229355679 0
outer loop
vertex -9.70824759968679 -7.053413878210483 0
vertex -2.4720548838822856 -7.608519977570103 4.999917579062474
vertex -9.70824759968679 -7.053413878210483 4.999917579062474
endloop
endfacet
facet normal -0.5241888182290343 -0.8516020683650599 0
outer loop
vertex -2.4720548838822856 -7.608519977570103 0
vertex 3.7082474376911736 -11.412697410421282 0
vertex 3.7082474376911736 -11.412697410421282 4.999917579062474
endloop
endfacet
facet normal -0.5241888182290343 -0.8516020683650599 0
outer loop
vertex -2.4720548838822856 -7.608519977570103 0
vertex 3.7082474376911736 -11.412697410421282 4.999917579062474
vertex -2.4720548838822856 -7.608519977570103 4.999917579062474
endloop
endfacet
facet normal 0.9246455840790802 -0.3808287592121382 0
outer loop
vertex 3.7082474376911736 -11.412697410421282 0
vertex 6.472054991879363 -4.70222088151774 0
vertex 6.472054991879363 -4.70222088151774 4.999917579062474
endloop
endfacet
facet normal 0.9246455840790802 -0.3808287592121382 0
outer loop
vertex 3.7082474376911736 -11.412697410421282 0
vertex 6.472054991879363 -4.70222088151774 4.999917579062474
vertex 3.7082474376911736 -11.412697410421282 4.999917579062474
endloop
endfacet
facet normal 0 0 1
outer loop
vertex 6.472054991879363 -4.70222088151774 4.999917579062474
vertex 12.000000323991232 0 4.999917579062474
vertex 6.472054991879363 4.70222088151774 4.999917579062474
endloop
endfacet
facet normal 0 0 0.9999999999999999
outer loop
vertex 6.472054991879363 4.70222088151774 4.999917579062474
vertex 3.7082474376911736 11.412697410421282 4.999917579062474
vertex -2.4720548838822856 7.608519977570103 4.999917579062474
endloop
endfacet
facet normal 0 0 1
outer loop
vertex -2.4720548838822856 7.608519977570103 4.999917579062474
vertex -9.70824759968679 7.053413878210483 4.999917579062474
vertex -8.000000215994156 0 4.999917579062474
endloop
endfacet
facet normal 0 0 1
outer loop
vertex -8.000000215994156 0 4.999917579062474
vertex -9.70824759968679 -7.053413878210483 4.999917579062474
vertex -2.4720548838822856 -7.608519977570103 4.999917579062474
endloop
endfacet
facet normal 0 0 1
outer loop
vertex -2.4720548838822856 -7.608519977570103 4.999917579062474
vertex 3.7082474376911736 -11.412697410421282 4.999917579062474
vertex 6.472054991879363 -4.70222088151774 4.999917579062474
endloop
endfacet
facet normal 0 0 1
outer loop
vertex 6.472054991879363 -4.70222088151774 4.999917579062474
vertex 6.472054991879363 4.70222088151774 4.999917579062474
vertex -2.4720548838822856 7.608519977570103 4.999917579062474
endloop
endfacet
facet normal 0 0 1
outer loop
vertex -2.4720548838822856 7.608519977570103 4.999917579062474
vertex -8.000000215994156 0 4.999917579062474
vertex -2.4720548838822856 -7.608519977570103 4.999917579062474
endloop
endfacet
facet normal 0 0 0.9999999999999999
outer loop
vertex -2.4720548838822856 -7.608519977570103 4.999917579062474
vertex 6.472054991879363 -4.70222088151774 4.999917579062474
vertex -2.4720548838822856 7.608519977570103 4.999917579062474
endloop
endfacet
facet normal 0 0 -1
outer loop
vertex 6.472054991879363 4.70222088151774 0
vertex 12.000000323991232 0 0
vertex 6.472054991879363 -4.70222088151774 0
endloop
endfacet
facet normal 0 0 -1
outer loop
vertex -2.4720548838822856 7.608519977570103 0
vertex 3.7082474376911736 11.412697410421282 0
vertex 6.472054991879363 4.70222088151774 0
endloop
endfacet
facet normal 0 0 -1
outer loop
vertex -8.000000215994156 0 0
vertex -9.70824759968679 7.053413878210483 0
vertex -2.4720548838822856 7.608519977570103 0
endloop
endfacet
facet normal 0 0 -1
outer loop
vertex -2.4720548838822856 -7.608519977570103 0
vertex -9.70824759968679 -7.053413878210483 0
vertex -8.000000215994156 0 0
endloop
endfacet
facet normal 0 0 -0.9999999999999999
outer loop
vertex 6.472054991879363 -4.70222088151774 0
vertex 3.7082474376911736 -11.412697410421282 0
vertex -2.4720548838822856 -7.608519977570103 0
endloop
endfacet
facet normal 0 0 -1
outer loop
vertex -2.4720548838822856 7.608519977570103 0
vertex 6.472054991879363 4.70222088151774 0
vertex 6.472054991879363 -4.70222088151774 0
endloop
endfacet
facet normal 0 0 -1
outer loop
vertex -2.4720548838822856 -7.608519977570103 0
vertex -8.000000215994156 0 0
vertex -2.4720548838822856 7.608519977570103 0
endloop
endfacet
facet normal 0 0 -0.9999999999999999
outer loop
vertex -2.4720548838822856 7.608519977570103 0
vertex 6.472054991879363 -4.70222088151774 0
vertex -2.4720548838822856 -7.608519977570103 0
endloop
endfacet
endsolid JSCAD
