solid JSCAD
facet normal 0 -1 0
outer loop
vertex -20 -20 0
vertex 20 -20 0
vertex 20 -20 20
endloop
endfacet
facet normal 0 -1 0
outer loop
vertex -20 -20 0
vertex 20 -20 20
vertex -20 -20 20
endloop
endfacet
facet normal 0.894427190999916 0.447213595499958 0
outer loop
vertex 20 -20 0
vertex 0 20 0
vertex 0 20 20
endloop
endfacet
facet normal 0.894427190999916 0.447213595499958 0
outer loop
vertex 20 -20 0
vertex 0 20 20
vertex 20 -20 20
endloop
endfacet
facet normal -0.894427190999916 0.447213595499958 0
outer loop
vertex 0 20 0
vertex -20 -20 0
vertex -20 -20 20
endloop
endfacet
facet normal -0.894427190999916 0.447213595499958 0
outer loop
vertex 0 20 0
vertex -20 -20 20
vertex 0 20 20
endloop
endfacet
facet normal 0 0 1
outer loop
vertex 0 20 20
vertex -20 -20 20
vertex 20 -20 20
endloop
endfacet
facet normal 0 0 -1
outer loop
vertex 20 -20 0
vertex -20 -20 0
vertex 0 20 0
endloop
endfacet
endsolid JSCAD
