solid JSCAD
facet normal 0.9807789609522591 -0.19512208935281214 0
outer loop
vertex 9.238711012266668 -3.8268517021333337 0
vertex 10.000048000000001 0 0
vertex 10.000048000000001 0 10.000048000000001
endloop
endfacet
facet normal 0.9807789609522591 -0.19512208935281214 0
outer loop
vertex 9.238711012266668 -3.8268517021333337 0
vertex 10.000048000000001 0 10.000048000000001
vertex 9.238711012266668 -3.8268517021333337 10.000048000000001
endloop
endfacet
facet normal 0.9807789609522591 0.19512208935281214 0
outer loop
vertex 10.000048000000001 0 0
vertex 9.238711012266668 3.8268517021333337 0
vertex 9.238711012266668 3.8268517021333337 10.000048000000001
endloop
endfacet
facet normal 0.9807789609522591 0.19512208935281214 0
outer loop
vertex 10.000048000000001 0 0
vertex 9.238711012266668 3.8268517021333337 10.000048000000001
vertex 10.000048000000001 0 10.000048000000001
endloop
endfacet
facet normal 0.8315044450332935 0.5555180986159448 0
outer loop
vertex 9.238711012266668 3.8268517021333337 0
vertex 7.071200608266667 7.071200608266667 0
vertex 7.071200608266667 7.071200608266667 10.000048000000001
endloop
endfacet
facet normal 0.8315044450332935 0.5555180986159448 0
outer loop
vertex 9.238711012266668 3.8268517021333337 0
vertex 7.071200608266667 7.071200608266667 10.000048000000001
vertex 9.238711012266668 3.8268517021333337 10.000048000000001
endloop
endfacet
facet normal 0.5555180986159448 0.8315044450332935 0
outer loop
vertex 7.071200608266667 7.071200608266667 0
vertex 3.8268517021333337 9.238711012266668 0
vertex 3.8268517021333337 9.238711012266668 10.000048000000001
endloop
endfacet
facet normal 0.5555180986159448 0.8315044450332935 0
outer loop
vertex 7.071200608266667 7.071200608266667 0
vertex 3.8268517021333337 9.238711012266668 10.000048000000001
vertex 7.071200608266667 7.071200608266667 10.000048000000001
endloop
endfacet
facet normal 0.19512208935281214 0.9807789609522591 0
outer loop
vertex 3.8268517021333337 9.238711012266668 0
vertex 0 10.000048000000001 0
vertex 0 10.000048000000001 10.000048000000001
endloop
endfacet
facet normal 0.19512208935281214 0.9807789609522591 0
outer loop
vertex 3.8268517021333337 9.238711012266668 0
vertex 0 10.000048000000001 10.000048000000001
vertex 3.8268517021333337 9.238711012266668 10.000048000000001
endloop
endfacet
facet normal -0.19512208935281214 0.9807789609522591 0
outer loop
vertex 0 10.000048000000001 0
vertex -3.8268517021333337 9.238711012266668 0
vertex -3.8268517021333337 9.238711012266668 10.000048000000001
endloop
endfacet
facet normal -0.19512208935281214 0.9807789609522591 0
outer loop
vertex 0 10.000048000000001 0
vertex -3.8268517021333337 9.238711012266668 10.000048000000001
vertex 0 10.000048000000001 10.000048000000001
endloop
endfacet
facet normal -0.5555180986159448 0.8315044450332935 0
outer loop
vertex -3.8268517021333337 9.238711012266668 0
vertex -7.071200608266667 7.071200608266667 0
vertex -7.071200608266667 7.071200608266667 10.000048000000001
endloop
endfacet
facet normal -0.5555180986159448 0.8315044450332935 0
outer loop
vertex -3.8268517021333337 9.238711012266668 0
vertex -7.071200608266667 7.071200608266667 10.000048000000001
vertex -3.8268517021333337 9.238711012266668 10.000048000000001
endloop
endfacet
facet normal -0.8315044450332935 0.5555180986159448 0
outer loop
vertex -7.071200608266667 7.071200608266667 0
vertex -9.238711012266668 3.8268517021333337 0
vertex -9.238711012266668 3.8268517021333337 10.000048000000001
endloop
endfacet
facet normal -0.8315044450332935 0.5555180986159448 0
outer loop
vertex -7.071200608266667 7.071200608266667 0
vertex -9.238711012266668 3.8268517021333337 10.000048000000001
vertex -7.071200608266667 7.071200608266667 10.000048000000001
endloop
endfacet
facet normal -0.9807789609522591 0.19512208935281214 0
outer loop
vertex -9.238711012266668 3.8268517021333337 0
vertex -10.000048000000001 0 0
vertex -10.000048000000001 0 10.000048000000001
endloop
endfacet
facet normal -0.9807789609522591 0.19512208935281214 0
outer loop
vertex -9.238711012266668 3.8268517021333337 0
vertex -10.000048000000001 0 10.000048000000001
vertex -9.238711012266668 3.8268517021333337 10.000048000000001
endloop
endfacet
facet normal -0.9807789609522591 -0.19512208935281214 0
outer loop
vertex -10.000048000000001 0 0
vertex -9.238711012266668 -3.8268517021333337 0
vertex -9.238711012266668 -3.8268517021333337 10.000048000000001
endloop
endfacet
facet normal -0.9807789609522591 -0.19512208935281214 0
outer loop
vertex -10.000048000000001 0 0
vertex -9.238711012266668 -3.8268517021333337 10.000048000000001
vertex -10.000048000000001 0 10.000048000000001
endloop
endfacet
facet normal -0.8315044450332935 -0.5555180986159448 0
outer loop
vertex -9.238711012266668 -3.8268517021333337 0
vertex -7.071200608266667 -7.071200608266667 0
vertex -7.071200608266667 -7.071200608266667 10.000048000000001
endloop
endfacet
facet normal -0.8315044450332935 -0.5555180986159448 0
outer loop
vertex -9.238711012266668 -3.8268517021333337 0
vertex -7.071200608266667 -7.071200608266667 10.000048000000001
vertex -9.238711012266668 -3.8268517021333337 10.000048000000001
endloop
endfacet
facet normal -0.5555180986159448 -0.8315044450332935 0
outer loop
vertex -7.071200608266667 -7.071200608266667 0
vertex -3.8268517021333337 -9.238711012266668 0
vertex -3.8268517021333337 -9.238711012266668 10.000048000000001
endloop
endfacet
facet normal -0.5555180986159448 -0.8315044450332935 0
outer loop
vertex -7.071200608266667 -7.071200608266667 0
vertex -3.8268517021333337 -9.238711012266668 10.000048000000001
vertex -7.071200608266667 -7.071200608266667 10.000048000000001
endloop
endfacet
facet normal -0.19512208935281214 -0.9807789609522591 0
outer loop
vertex -3.8268517021333337 -9.238711012266668 0
vertex 0 -10.000048000000001 0
vertex 0 -10.000048000000001 10.000048000000001
endloop
endfacet
facet normal -0.19512208935281214 -0.9807789609522591 0
outer loop
vertex -3.8268517021333337 -9.238711012266668 0
vertex 0 -10.000048000000001 10.000048000000001
vertex -3.8268517021333337 -9.238711012266668 10.000048000000001
endloop
endfacet
facet normal 0.19512208935281214 -0.9807789609522591 0
outer loop
vertex 0 -10.000048000000001 0
vertex 3.8268517021333337 -9.238711012266668 0
vertex 3.8268517021333337 -9.238711012266668 10.000048000000001
endloop
endfacet
facet normal 0.19512208935281214 -0.9807789609522591 0
outer loop
vertex 0 -10.000048000000001 0
vertex 3.8268517021333337 -9.238711012266668 10.000048000000001
vertex 0 -10.000048000000001 10.000048000000001
endloop
endfacet
facet normal 0.5555180986159448 -0.8315044450332935 0
outer loop
vertex 3.8268517021333337 -9.238711012266668 0
vertex 7.071200608266667 -7.071200608266667 0
vertex 7.071200608266667 -7.071200608266667 10.000048000000001
endloop
endfacet
facet normal 0.5555180986159448 -0.8315044450332935 0
outer loop
vertex 3.8268517021333337 -9.238711012266668 0
vertex 7.071200608266667 -7.071200608266667 10.000048000000001
vertex 3.8268517021333337 -9.238711012266668 10.000048000000001
endloop
endfacet
facet normal 0.8315044450332935 -0.5555180986159448 0
outer loop
vertex 7.071200608266667 -7.071200608266667 0
vertex 9.238711012266668 -3.8268517021333337 0
vertex 9.238711012266668 -3.8268517021333337 10.000048000000001
endloop
endfacet
facet normal 0.8315044450332935 -0.5555180986159448 0
outer loop
vertex 7.071200608266667 -7.071200608266667 0
vertex 9.238711012266668 -3.8268517021333337 10.000048000000001
vertex 7.071200608266667 -7.071200608266667 10.000048000000001
endloop
endfacet
facet normal -0.9807936816267764 0.19504808145940145 0
outer loop
vertex 5.000024000000001 0 0
vertex 4.619522173600001 -1.9133425173333336 0
vertex 4.619522173600001 -1.9133425173333336 10.000048000000001
endloop
endfacet
facet normal -0.9807936816267764 0.19504808145940145 0
outer loop
vertex 5.000024000000001 0 0
vertex 4.619522173600001 -1.9133425173333336 10.000048000000001
vertex 5.000024000000001 0 10.000048000000001
endloop
endfacet
facet normal -0.9807936816267764 -0.19504808145940145 0
outer loop
vertex 4.619522173600001 1.9133425173333336 0
vertex 5.000024000000001 0 0
vertex 5.000024000000001 0 10.000048000000001
endloop
endfacet
facet normal -0.9807936816267764 -0.19504808145940145 0
outer loop
vertex 4.619522173600001 1.9133425173333336 0
vertex 5.000024000000001 0 10.000048000000001
vertex 4.619522173600001 1.9133425173333336 10.000048000000001
endloop
endfacet
facet normal -0.831445251316502 -0.555606690081427 0
outer loop
vertex 3.5355169704000007 3.5355169704000007 0
vertex 4.619522173600001 1.9133425173333336 0
vertex 4.619522173600001 1.9133425173333336 10.000048000000001
endloop
endfacet
facet normal -0.831445251316502 -0.555606690081427 0
outer loop
vertex 3.5355169704000007 3.5355169704000007 0
vertex 4.619522173600001 1.9133425173333336 10.000048000000001
vertex 3.5355169704000007 3.5355169704000007 10.000048000000001
endloop
endfacet
facet normal -0.555606690081427 -0.831445251316502 0
outer loop
vertex 1.9133425173333336 4.619522173600001 0
vertex 3.5355169704000007 3.5355169704000007 0
vertex 3.5355169704000007 3.5355169704000007 10.000048000000001
endloop
endfacet
facet normal -0.555606690081427 -0.831445251316502 0
outer loop
vertex 1.9133425173333336 4.619522173600001 0
vertex 3.5355169704000007 3.5355169704000007 10.000048000000001
vertex 1.9133425173333336 4.619522173600001 10.000048000000001
endloop
endfacet
facet normal -0.19504808145940145 -0.9807936816267764 0
outer loop
vertex 0 5.000024000000001 0
vertex 1.9133425173333336 4.619522173600001 0
vertex 1.9133425173333336 4.619522173600001 10.000048000000001
endloop
endfacet
facet normal -0.19504808145940145 -0.9807936816267764 0
outer loop
vertex 0 5.000024000000001 0
vertex 1.9133425173333336 4.619522173600001 10.000048000000001
vertex 0 5.000024000000001 10.000048000000001
endloop
endfacet
facet normal 0.19504808145940145 -0.9807936816267764 0
outer loop
vertex -1.9133425173333336 4.619522173600001 0
vertex 0 5.000024000000001 0
vertex 0 5.000024000000001 10.000048000000001
endloop
endfacet
facet normal 0.19504808145940145 -0.9807936816267764 0
outer loop
vertex -1.9133425173333336 4.619522173600001 0
vertex 0 5.000024000000001 10.000048000000001
vertex -1.9133425173333336 4.619522173600001 10.000048000000001
endloop
endfacet
facet normal 0.555606690081427 -0.831445251316502 0
outer loop
vertex -3.5355169704000007 3.5355169704000007 0
vertex -1.9133425173333336 4.619522173600001 0
vertex -1.9133425173333336 4.619522173600001 10.000048000000001
endloop
endfacet
facet normal 0.555606690081427 -0.831445251316502 0
outer loop
vertex -3.5355169704000007 3.5355169704000007 0
vertex -1.9133425173333336 4.619522173600001 10.000048000000001
vertex -3.5355169704000007 3.5355169704000007 10.000048000000001
endloop
endfacet
facet normal 0.831445251316502 -0.555606690081427 0
outer loop
vertex -4.619522173600001 1.9133425173333336 0
vertex -3.5355169704000007 3.5355169704000007 0
vertex -3.5355169704000007 3.5355169704000007 10.000048000000001
endloop
endfacet
facet normal 0.831445251316502 -0.555606690081427 0
outer loop
vertex -4.619522173600001 1.9133425173333336 0
vertex -3.5355169704000007 3.5355169704000007 10.000048000000001
vertex -4.619522173600001 1.9133425173333336 10.000048000000001
endloop
endfacet
facet normal 0.9807936816267764 -0.19504808145940145 0
outer loop
vertex -5.000024000000001 0 0
vertex -4.619522173600001 1.9133425173333336 0
vertex -4.619522173600001 1.9133425173333336 10.000048000000001
endloop
endfacet
facet normal 0.9807936816267764 -0.19504808145940145 0
outer loop
vertex -5.000024000000001 0 0
vertex -4.619522173600001 1.9133425173333336 10.000048000000001
vertex -5.000024000000001 0 10.000048000000001
endloop
endfacet
facet normal 0.9807936816267764 0.19504808145940145 0
outer loop
vertex -4.619522173600001 -1.9133425173333336 0
vertex -5.000024000000001 0 0
vertex -5.000024000000001 0 10.000048000000001
endloop
endfacet
facet normal 0.9807936816267764 0.19504808145940145 0
outer loop
vertex -4.619522173600001 -1.9133425173333336 0
vertex -5.000024000000001 0 10.000048000000001
vertex -4.619522173600001 -1.9133425173333336 10.000048000000001
endloop
endfacet
facet normal 0.831445251316502 0.555606690081427 0
outer loop
vertex -3.5355169704000007 -3.5355169704000007 0
vertex -4.619522173600001 -1.9133425173333336 0
vertex -4.619522173600001 -1.9133425173333336 10.000048000000001
endloop
endfacet
facet normal 0.831445251316502 0.555606690081427 0
outer loop
vertex -3.5355169704000007 -3.5355169704000007 0
vertex -4.619522173600001 -1.9133425173333336 10.000048000000001
vertex -3.5355169704000007 -3.5355169704000007 10.000048000000001
endloop
endfacet
facet normal 0.555606690081427 0.831445251316502 0
outer loop
vertex -1.9133425173333336 -4.619522173600001 0
vertex -3.5355169704000007 -3.5355169704000007 0
vertex -3.5355169704000007 -3.5355169704000007 10.000048000000001
endloop
endfacet
facet normal 0.555606690081427 0.831445251316502 0
outer loop
vertex -1.9133425173333336 -4.619522173600001 0
vertex -3.5355169704000007 -3.5355169704000007 10.000048000000001
vertex -1.9133425173333336 -4.619522173600001 10.000048000000001
endloop
endfacet
facet normal 0.19504808145940145 0.9807936816267764 0
outer loop
vertex 0 -5.000024000000001 0
vertex -1.9133425173333336 -4.619522173600001 0
vertex -1.9133425173333336 -4.619522173600001 10.000048000000001
endloop
endfacet
facet normal 0.19504808145940145 0.9807936816267764 0
outer loop
vertex 0 -5.000024000000001 0
vertex -1.9133425173333336 -4.619522173600001 10.000048000000001
vertex 0 -5.000024000000001 10.000048000000001
endloop
endfacet
facet normal -0.19504808145940145 0.9807936816267764 0
outer loop
vertex 1.9133425173333336 -4.619522173600001 0
vertex 0 -5.000024000000001 0
vertex 0 -5.000024000000001 10.000048000000001
endloop
endfacet
facet normal -0.19504808145940145 0.9807936816267764 0
outer loop
vertex 1.9133425173333336 -4.619522173600001 0
vertex 0 -5.000024000000001 10.000048000000001
vertex 1.9133425173333336 -4.619522173600001 10.000048000000001
endloop
endfacet
facet normal -0.555606690081427 0.831445251316502 0
outer loop
vertex 3.5355169704000007 -3.5355169704000007 0
vertex 1.9133425173333336 -4.619522173600001 0
vertex 1.9133425173333336 -4.619522173600001 10.000048000000001
endloop
endfacet
facet normal -0.555606690081427 0.831445251316502 0
outer loop
vertex 3.5355169704000007 -3.5355169704000007 0
vertex 1.9133425173333336 -4.619522173600001 10.000048000000001
vertex 3.5355169704000007 -3.5355169704000007 10.000048000000001
endloop
endfacet
facet normal -0.831445251316502 0.555606690081427 0
outer loop
vertex 4.619522173600001 -1.9133425173333336 0
vertex 3.5355169704000007 -3.5355169704000007 0
vertex 3.5355169704000007 -3.5355169704000007 10.000048000000001
endloop
endfacet
facet normal -0.831445251316502 0.555606690081427 0
outer loop
vertex 4.619522173600001 -1.9133425173333336 0
vertex 3.5355169704000007 -3.5355169704000007 10.000048000000001
vertex 4.619522173600001 -1.9133425173333336 10.000048000000001
endloop
endfacet
facet normal 0 0 1
outer loop
vertex 9.238711012266668 -3.8268517021333337 10.000048000000001
vertex 10.000048000000001 0 10.000048000000001
vertex 5.000024000000001 0 10.000048000000001
endloop
endfacet
facet normal 0 0 1
outer loop
vertex 4.619522173600001 1.9133425173333336 10.000048000000001
vertex 5.000024000000001 0 10.000048000000001
vertex 10.000048000000001 0 10.000048000000001
endloop
endfacet
facet normal 0 0 1
outer loop
vertex 10.000048000000001 0 10.000048000000001
vertex 9.238711012266668 3.8268517021333337 10.000048000000001
vertex 7.071200608266667 7.071200608266667 10.000048000000001
endloop
endfacet
facet normal 0 0 1
outer loop
vertex 7.071200608266667 7.071200608266667 10.000048000000001
vertex 3.8268517021333337 9.238711012266668 10.000048000000001
vertex 0 10.000048000000001 10.000048000000001
endloop
endfacet
facet normal 0 0 1
outer loop
vertex 0 10.000048000000001 10.000048000000001
vertex -3.8268517021333337 9.238711012266668 10.000048000000001
vertex -7.071200608266667 7.071200608266667 10.000048000000001
endloop
endfacet
facet normal 0 0 1
outer loop
vertex -7.071200608266667 7.071200608266667 10.000048000000001
vertex -9.238711012266668 3.8268517021333337 10.000048000000001
vertex -10.000048000000001 0 10.000048000000001
endloop
endfacet
facet normal 0 0 1
outer loop
vertex -10.000048000000001 0 10.000048000000001
vertex -9.238711012266668 -3.8268517021333337 10.000048000000001
vertex -7.071200608266667 -7.071200608266667 10.000048000000001
endloop
endfacet
facet normal 0 0 1
outer loop
vertex -7.071200608266667 -7.071200608266667 10.000048000000001
vertex -3.8268517021333337 -9.238711012266668 10.000048000000001
vertex 0 -10.000048000000001 10.000048000000001
endloop
endfacet
facet normal 0 0 1
outer loop
vertex 0 -10.000048000000001 10.000048000000001
vertex 3.8268517021333337 -9.238711012266668 10.000048000000001
vertex 7.071200608266667 -7.071200608266667 10.000048000000001
endloop
endfacet
facet normal 0 0 1
outer loop
vertex 7.071200608266667 -7.071200608266667 10.000048000000001
vertex 9.238711012266668 -3.8268517021333337 10.000048000000001
vertex 5.000024000000001 0 10.000048000000001
endloop
endfacet
facet normal 0 0 1
outer loop
vertex 3.5355169704000007 3.5355169704000007 10.000048000000001
vertex 4.619522173600001 1.9133425173333336 10.000048000000001
vertex 10.000048000000001 0 10.000048000000001
endloop
endfacet
facet normal 0 0 0.9999999999999999
outer loop
vertex 10.000048000000001 0 10.000048000000001
vertex 7.071200608266667 7.071200608266667 10.000048000000001
vertex 0 10.000048000000001 10.000048000000001
endloop
endfacet
facet normal 0 0 0.9999999999999999
outer loop
vertex 0 10.000048000000001 10.000048000000001
vertex -7.071200608266667 7.071200608266667 10.000048000000001
vertex -10.000048000000001 0 10.000048000000001
endloop
endfacet
facet normal 0 0 0.9999999999999999
outer loop
vertex -10.000048000000001 0 10.000048000000001
vertex -7.071200608266667 -7.071200608266667 10.000048000000001
vertex 0 -10.000048000000001 10.000048000000001
endloop
endfacet
facet normal 0 0 1
outer loop
vertex 7.071200608266667 -7.071200608266667 10.000048000000001
vertex 5.000024000000001 0 10.000048000000001
vertex 4.619522173600001 -1.9133425173333336 10.000048000000001
endloop
endfacet
facet normal 0 0 1
outer loop
vertex 1.9133425173333336 4.619522173600001 10.000048000000001
vertex 3.5355169704000007 3.5355169704000007 10.000048000000001
vertex 10.000048000000001 0 10.000048000000001
endloop
endfacet
facet normal 0 0 1
outer loop
vertex 0 -10.000048000000001 10.000048000000001
vertex 7.071200608266667 -7.071200608266667 10.000048000000001
vertex 4.619522173600001 -1.9133425173333336 10.000048000000001
endloop
endfacet
facet normal 0 0 1
outer loop
vertex 1.9133425173333336 4.619522173600001 10.000048000000001
vertex 10.000048000000001 0 10.000048000000001
vertex 0 10.000048000000001 10.000048000000001
endloop
endfacet
facet normal 0 0 1
outer loop
vertex 0 -10.000048000000001 10.000048000000001
vertex 4.619522173600001 -1.9133425173333336 10.000048000000001
vertex 3.5355169704000007 -3.5355169704000007 10.000048000000001
endloop
endfacet
facet normal 0 0 1
outer loop
vertex 0 5.000024000000001 10.000048000000001
vertex 1.9133425173333336 4.619522173600001 10.000048000000001
vertex 0 10.000048000000001 10.000048000000001
endloop
endfacet
facet normal 0 0 1
outer loop
vertex 0 -10.000048000000001 10.000048000000001
vertex 3.5355169704000007 -3.5355169704000007 10.000048000000001
vertex 1.9133425173333336 -4.619522173600001 10.000048000000001
endloop
endfacet
facet normal 0 0 1
outer loop
vertex -1.9133425173333336 4.619522173600001 10.000048000000001
vertex 0 5.000024000000001 10.000048000000001
vertex 0 10.000048000000001 10.000048000000001
endloop
endfacet
facet normal 0 0 1
outer loop
vertex 0 -10.000048000000001 10.000048000000001
vertex 1.9133425173333336 -4.619522173600001 10.000048000000001
vertex 0 -5.000024000000001 10.000048000000001
endloop
endfacet
facet normal 0 0 1
outer loop
vertex -3.5355169704000007 3.5355169704000007 10.000048000000001
vertex -1.9133425173333336 4.619522173600001 10.000048000000001
vertex 0 10.000048000000001 10.000048000000001
endloop
endfacet
facet normal 0 0 1
outer loop
vertex 0 -10.000048000000001 10.000048000000001
vertex 0 -5.000024000000001 10.000048000000001
vertex -1.9133425173333336 -4.619522173600001 10.000048000000001
endloop
endfacet
facet normal 0 0 1
outer loop
vertex -4.619522173600001 1.9133425173333336 10.000048000000001
vertex -3.5355169704000007 3.5355169704000007 10.000048000000001
vertex 0 10.000048000000001 10.000048000000001
endloop
endfacet
facet normal 0 0 1
outer loop
vertex -10.000048000000001 0 10.000048000000001
vertex 0 -10.000048000000001 10.000048000000001
vertex -1.9133425173333336 -4.619522173600001 10.000048000000001
endloop
endfacet
facet normal 0 0 1
outer loop
vertex -4.619522173600001 1.9133425173333336 10.000048000000001
vertex 0 10.000048000000001 10.000048000000001
vertex -10.000048000000001 0 10.000048000000001
endloop
endfacet
facet normal 0 0 1
outer loop
vertex -10.000048000000001 0 10.000048000000001
vertex -1.9133425173333336 -4.619522173600001 10.000048000000001
vertex -3.5355169704000007 -3.5355169704000007 10.000048000000001
endloop
endfacet
facet normal 0 0 1
outer loop
vertex -5.000024000000001 0 10.000048000000001
vertex -4.619522173600001 1.9133425173333336 10.000048000000001
vertex -10.000048000000001 0 10.000048000000001
endloop
endfacet
facet normal 0 0 1
outer loop
vertex -10.000048000000001 0 10.000048000000001
vertex -3.5355169704000007 -3.5355169704000007 10.000048000000001
vertex -4.619522173600001 -1.9133425173333336 10.000048000000001
endloop
endfacet
facet normal 0 0 1
outer loop
vertex -4.619522173600001 -1.9133425173333336 10.000048000000001
vertex -5.000024000000001 0 10.000048000000001
vertex -10.000048000000001 0 10.000048000000001
endloop
endfacet
facet normal 0 0 -1
outer loop
vertex 5.000024000000001 0 0
vertex 10.000048000000001 0 0
vertex 9.238711012266668 -3.8268517021333337 0
endloop
endfacet
facet normal 0 0 -1
outer loop
vertex 10.000048000000001 0 0
vertex 5.000024000000001 0 0
vertex 4.619522173600001 1.9133425173333336 0
endloop
endfacet
facet normal 0 0 -1
outer loop
vertex 7.071200608266667 7.071200608266667 0
vertex 9.238711012266668 3.8268517021333337 0
vertex 10.000048000000001 0 0
endloop
endfacet
facet normal 0 0 -1
outer loop
vertex 0 10.000048000000001 0
vertex 3.8268517021333337 9.238711012266668 0
vertex 7.071200608266667 7.071200608266667 0
endloop
endfacet
facet normal 0 0 -1
outer loop
vertex -7.071200608266667 7.071200608266667 0
vertex -3.8268517021333337 9.238711012266668 0
vertex 0 10.000048000000001 0
endloop
endfacet
facet normal 0 0 -1
outer loop
vertex -10.000048000000001 0 0
vertex -9.238711012266668 3.8268517021333337 0
vertex -7.071200608266667 7.071200608266667 0
endloop
endfacet
facet normal 0 0 -1
outer loop
vertex -7.071200608266667 -7.071200608266667 0
vertex -9.238711012266668 -3.8268517021333337 0
vertex -10.000048000000001 0 0
endloop
endfacet
facet normal 0 0 -1
outer loop
vertex 0 -10.000048000000001 0
vertex -3.8268517021333337 -9.238711012266668 0
vertex -7.071200608266667 -7.071200608266667 0
endloop
endfacet
facet normal 0 0 -1
outer loop
vertex 7.071200608266667 -7.071200608266667 0
vertex 3.8268517021333337 -9.238711012266668 0
vertex 0 -10.000048000000001 0
endloop
endfacet
facet normal 0 0 -1
outer loop
vertex 5.000024000000001 0 0
vertex 9.238711012266668 -3.8268517021333337 0
vertex 7.071200608266667 -7.071200608266667 0
endloop
endfacet
facet normal 0 0 -1
outer loop
vertex 10.000048000000001 0 0
vertex 4.619522173600001 1.9133425173333336 0
vertex 3.5355169704000007 3.5355169704000007 0
endloop
endfacet
facet normal 0 0 -0.9999999999999999
outer loop
vertex 0 10.000048000000001 0
vertex 7.071200608266667 7.071200608266667 0
vertex 10.000048000000001 0 0
endloop
endfacet
facet normal 0 0 -0.9999999999999999
outer loop
vertex -10.000048000000001 0 0
vertex -7.071200608266667 7.071200608266667 0
vertex 0 10.000048000000001 0
endloop
endfacet
facet normal 0 0 -0.9999999999999999
outer loop
vertex 0 -10.000048000000001 0
vertex -7.071200608266667 -7.071200608266667 0
vertex -10.000048000000001 0 0
endloop
endfacet
facet normal 0 0 -1
outer loop
vertex 4.619522173600001 -1.9133425173333336 0
vertex 5.000024000000001 0 0
vertex 7.071200608266667 -7.071200608266667 0
endloop
endfacet
facet normal 0 0 -1
outer loop
vertex 10.000048000000001 0 0
vertex 3.5355169704000007 3.5355169704000007 0
vertex 1.9133425173333336 4.619522173600001 0
endloop
endfacet
facet normal 0 0 -1
outer loop
vertex 4.619522173600001 -1.9133425173333336 0
vertex 7.071200608266667 -7.071200608266667 0
vertex 0 -10.000048000000001 0
endloop
endfacet
facet normal 0 0 -1
outer loop
vertex 0 10.000048000000001 0
vertex 10.000048000000001 0 0
vertex 1.9133425173333336 4.619522173600001 0
endloop
endfacet
facet normal 0 0 -1
outer loop
vertex 3.5355169704000007 -3.5355169704000007 0
vertex 4.619522173600001 -1.9133425173333336 0
vertex 0 -10.000048000000001 0
endloop
endfacet
facet normal 0 0 -1
outer loop
vertex 0 10.000048000000001 0
vertex 1.9133425173333336 4.619522173600001 0
vertex 0 5.000024000000001 0
endloop
endfacet
facet normal 0 0 -1
outer loop
vertex 1.9133425173333336 -4.619522173600001 0
vertex 3.5355169704000007 -3.5355169704000007 0
vertex 0 -10.000048000000001 0
endloop
endfacet
facet normal 0 0 -1
outer loop
vertex 0 10.000048000000001 0
vertex 0 5.000024000000001 0
vertex -1.9133425173333336 4.619522173600001 0
endloop
endfacet
facet normal 0 0 -1
outer loop
vertex 0 -5.000024000000001 0
vertex 1.9133425173333336 -4.619522173600001 0
vertex 0 -10.000048000000001 0
endloop
endfacet
facet normal 0 0 -1
outer loop
vertex 0 10.000048000000001 0
vertex -1.9133425173333336 4.619522173600001 0
vertex -3.5355169704000007 3.5355169704000007 0
endloop
endfacet
facet normal 0 0 -1
outer loop
vertex -1.9133425173333336 -4.619522173600001 0
vertex 0 -5.000024000000001 0
vertex 0 -10.000048000000001 0
endloop
endfacet
facet normal 0 0 -1
outer loop
vertex 0 10.000048000000001 0
vertex -3.5355169704000007 3.5355169704000007 0
vertex -4.619522173600001 1.9133425173333336 0
endloop
endfacet
facet normal 0 0 -1
outer loop
vertex -1.9133425173333336 -4.619522173600001 0
vertex 0 -10.000048000000001 0
vertex -10.000048000000001 0 0
endloop
endfacet
facet normal 0 0 -1
outer loop
vertex -10.000048000000001 0 0
vertex 0 10.000048000000001 0
vertex -4.619522173600001 1.9133425173333336 0
endloop
endfacet
facet normal 0 0 -1
outer loop
vertex -3.5355169704000007 -3.5355169704000007 0
vertex -1.9133425173333336 -4.619522173600001 0
vertex -10.000048000000001 0 0
endloop
endfacet
facet normal 0 0 -1
outer loop
vertex -10.000048000000001 0 0
vertex -4.619522173600001 1.9133425173333336 0
vertex -5.000024000000001 0 0
endloop
endfacet
facet normal 0 0 -1
outer loop
vertex -4.619522173600001 -1.9133425173333336 0
vertex -3.5355169704000007 -3.5355169704000007 0
vertex -10.000048000000001 0 0
endloop
endfacet
facet normal 0 0 -1
outer loop
vertex -10.000048000000001 0 0
vertex -5.000024000000001 0 0
vertex -4.619522173600001 -1.9133425173333336 0
endloop
endfacet
endsolid JSCAD
