{"asset":{"version":"2.0","generator":"THREE.GLTFExporter r165"},"scenes":[{"name":"AuxScene","nodes":[1]}],"scene":0,"nodes":[{"mesh":0},{"matrix":[1,0,0,0,0,1,0,0,0,0,1,0,0,0,0,1],"children":[0]}],"bufferViews":[{"buffer":0,"byteOffset":0,"byteLength":3096,"target":34962,"byteStride":12},{"buffer":0,"byteOffset":3096,"byteLength":3096,"target":34962,"byteStride":12},{"buffer":0,"byteOffset":6192,"byteLength":2064,"target":34962,"byteStride":8}],"buffers":[{"byteLength":8256,"uri":"data:application/octet-stream;base64,"}],"accessors":[{"bufferView":0,"componentType":5126,"count":258,"max":[-523.4290161132812,21,454.281005859375],"min":[-555.6950073242188,-2.781668904277331e-14,422.2139892578125],"type":"VEC3"},{"bufferView":1,"componentType":5126,"count":258,"max":[1,1,0.8321003317832947],"min":[-0.8575103282928467,-1,-0.87150639295578],"type":"VEC3"},{"bufferView":2,"componentType":5126,"count":258,"max":[-422.2139892578125,1],"min":[-555.6950073242188,-454.281005859375],"type":"VEC2"}],"materials":[{"pbrMetallicRoughness":{"baseColorFactor":[0.028426039499072558,0.4793201830913402,0.015208514418949472,0.8],"metallicFactor":0.5,"roughnessFactor":0.5},"alphaMode":"BLEND"}],"meshes":[{"primitives":[{"mode":4,"attributes":{"POSITION":0,"NORMAL":1,"TEXCOORD_0":2},"material":0}]}]}