{"asset":{"version":"2.0","generator":"THREE.GLTFExporter r165"},"scenes":[{"name":"AuxScene","nodes":[4]}],"scene":0,"nodes":[{"matrix":[1,0,0,0,0,1,0,0,0,0,1,0,0,-1.5,0,1],"mesh":0},{"mesh":1},{"mesh":2},{"mesh":3},{"matrix":[1,0,0,0,0,1,0,0,0,0,1,0,0,0,0,1],"children":[0,1,2,3]}],"bufferViews":[{"buffer":0,"byteOffset":0,"byteLength":288,"target":34962,"byteStride":12},{"buffer":0,"byteOffset":288,"byteLength":288,"target":34962,"byteStride":12},{"buffer":0,"byteOffset":576,"byteLength":192,"target":34962,"byteStride":8},{"buffer":0,"byteOffset":768,"byteLength":72,"target":34963},{"buffer":0,"byteOffset":840,"byteLength":677232,"target":34962,"byteStride":12},{"buffer":0,"byteOffset":678072,"byteLength":677232,"target":34962,"byteStride":12},{"buffer":0,"byteOffset":1355304,"byteLength":20088,"target":34962,"byteStride":12},{"buffer":0,"byteOffset":1375392,"byteLength":20088,"target":34962,"byteStride":12},{"buffer":0,"byteOffset":1395480,"byteLength":4680,"target":34962,"byteStride":12},{"buffer":0,"byteOffset":1400160,"byteLength":4680,"target":34962,"byteStride":12}],"buffers":[{"byteLength":1404840,"uri":"data:application/octet-stream;base64,"}],"accessors":[{"bufferView":0,"componentType":5126,"count":24,"max":[562.5,1.5,562.5],"min":[-562.5,-1.5,-562.5],"type":"VEC3"},{"bufferView":1,"componentType":5126,"count":24,"max":[1,1,1],"min":[-1,-1,-1],"type":"VEC3"},{"bufferView":2,"componentType":5126,"count":24,"max":[1,1],"min":[0,0],"type":"VEC2"},{"bufferView":3,"componentType":5123,"count":36,"max":[23],"min":[0],"type":"SCALAR"},{"bufferView":4,"componentType":5126,"count":56436,"max":[562.5000610351562,39,562.5000610351562],"min":[-562.5001220703125,0,-562.5000610351562],"type":"VEC3"},{"bufferView":5,"componentType":5126,"count":56436,"max":[1,1,1],"min":[-1,-1,-1],"type":"VEC3"},{"bufferView":6,"componentType":5126,"count":1674,"max":[562.5006713867188,1.5,562.5],"min":[-466.5589904785156,0,-562.5006713867188],"type":"VEC3"},{"bufferView":7,"componentType":5126,"count":1674,"max":[1,1,1],"min":[-1,-1,-1],"type":"VEC3"},{"bufferView":8,"componentType":5126,"count":390,"max":[414.3157653808594,3,562.5],"min":[-131.79454040527344,0,4.146015167236328],"type":"VEC3"},{"bufferView":9,"componentType":5126,"count":390,"max":[0.9618452191352844,1,1],"min":[-0.9925834536552429,-1,-0.9966602921485901],"type":"VEC3"}],"materials":[{"pbrMetallicRoughness":{"baseColorFactor":[0.008023192982520563,0.008023192982520563,0.008023192982520563,0.8],"metallicFactor":0,"roughnessFactor":1},"alphaMode":"BLEND"},{"pbrMetallicRoughness":{"baseColorFactor":[0.6038273388475408,0.6038273388475408,0.6038273388475408,0.8],"metallicFactor":0,"roughnessFactor":1},"alphaMode":"BLEND"},{"pbrMetallicRoughness":{"baseColorFactor":[0.015996293361446288,0.6038273388475408,0.057805430183792694,0.8],"metallicFactor":0,"roughnessFactor":1},"alphaMode":"BLEND"},{"pbrMetallicRoughness":{"baseColorFactor":[0.015996293361446288,0.31854677811435356,0.057805430183792694,0.8],"metallicFactor":0,"roughnessFactor":1},"alphaMode":"BLEND"}],"meshes":[{"primitives":[{"mode":4,"attributes":{"POSITION":0,"NORMAL":1,"TEXCOORD_0":2},"indices":3,"material":0}]},{"primitives":[{"mode":4,"attributes":{"POSITION":4,"NORMAL":5},"material":1}]},{"primitives":[{"mode":4,"attributes":{"POSITION":6,"NORMAL":7},"material":2}]},{"primitives":[{"mode":4,"attributes":{"POSITION":8,"NORMAL":9},"material":3}]}]}